<svg xmlns="http://www.w3.org/2000/svg" width="63" height="63.001" viewBox="0 0 63 63.001">
  <path id="União_10" data-name="União 10" d="M4717.756-1459.8a1.811,1.811,0,0,0-1.34-.161l-11.729,3.143a1.825,1.825,0,0,1-2.234-2.236l3.143-11.728a1.81,1.81,0,0,0-.162-1.34,30.949,30.949,0,0,1-3.8-14.878,30.8,30.8,0,0,1,9.08-21.921,30.8,30.8,0,0,1,21.921-9.08,30.8,30.8,0,0,1,21.92,9.08,30.8,30.8,0,0,1,9.08,21.921,30.8,30.8,0,0,1-9.08,21.92,30.8,30.8,0,0,1-21.92,9.08A30.964,30.964,0,0,1,4717.756-1459.8Zm.594-3.854a27.308,27.308,0,0,0,14.285,4.021A27.4,27.4,0,0,0,4760-1487a27.419,27.419,0,0,0-27.368-27.368A27.4,27.4,0,0,0,4705.268-1487a27.3,27.3,0,0,0,4.021,14.284,1.815,1.815,0,0,1,.206,1.419l-2.541,9.483a.4.4,0,0,0,.5.495l9.481-2.541a1.823,1.823,0,0,1,.471-.062A1.813,1.813,0,0,1,4718.351-1463.654Zm12.468-9.276a1.817,1.817,0,0,1,1.817-1.816,1.816,1.816,0,0,1,1.816,1.816,1.816,1.816,0,0,1-1.816,1.817A1.817,1.817,0,0,1,4730.818-1472.93Zm0-7.265a6.572,6.572,0,0,1,1.674-4.382l4.2-4.7a5.44,5.44,0,0,0,1.389-3.632,5.456,5.456,0,0,0-5.45-5.45,5.459,5.459,0,0,0-5.281,4.1,1.806,1.806,0,0,1-1.754,1.346,1.815,1.815,0,0,1-1.763-2.258,9.1,9.1,0,0,1,8.8-6.824,9.092,9.092,0,0,1,9.082,9.082,9.067,9.067,0,0,1-2.313,6.054l-4.49,5.02a1.823,1.823,0,0,0-.461,1.211v.429a1.817,1.817,0,0,1-1.817,1.816A1.816,1.816,0,0,1,4730.818-1480.195Z" transform="translate(-4701.135 1518.501)" fill="#e1173f" stroke="#fff" stroke-width="1"/>
</svg>
