<svg xmlns="http://www.w3.org/2000/svg" width="100" height="53" viewBox="0 0 100 53">
  <path id="União_9" data-name="União 9" d="M4945.7-1466.127a7.841,7.841,0,0,1-6.21-7.779l0-.5-.846,0a6.736,6.736,0,0,1-1.242-.115,7.1,7.1,0,0,1-5.622-7.045l-.06-29.134a7.025,7.025,0,0,1,6.833-7.191L4988-1518a6.636,6.636,0,0,1,4.845,2.091,7.289,7.289,0,0,1,2.019,5.07l0,1.244H4995a7.339,7.339,0,0,1,5.349,2.309,8.049,8.049,0,0,1,2.227,5.6l.016,7.005a1.454,1.454,0,0,1-1.416,1.489,1.452,1.452,0,0,1-1.419-1.484l-.015-7a5.053,5.053,0,0,0-1.392-3.5,4.588,4.588,0,0,0-3.342-1.443l-48.025.11a4.849,4.849,0,0,0-4.713,4.965l.055,27.636a4.85,4.85,0,0,0,4.738,4.942l31.943-.072a1.454,1.454,0,0,1,1.419,1.482,1.456,1.456,0,0,1-1.416,1.489l-31.94.072A7.294,7.294,0,0,1,4945.7-1466.127Zm42.3-48.9-49.447.112a4.115,4.115,0,0,0-4,4.215l.059,29.132a4.118,4.118,0,0,0,4.023,4.2l.848,0-.051-24.167a7.762,7.762,0,0,1,7.545-7.941l45.052-.1,0-1.244a4.274,4.274,0,0,0-1.182-2.971,3.889,3.889,0,0,0-2.827-1.225Zm-2.454,48.95a1.47,1.47,0,0,1-1.164-1.451,1.455,1.455,0,0,1,1.41-1.5l9.285-.055a4.592,4.592,0,0,0,3.343-1.458,5.044,5.044,0,0,0,1.377-3.505l-.007-13.719a1.453,1.453,0,0,1,1.417-1.485,1.453,1.453,0,0,1,1.417,1.484l.007,13.717a8.059,8.059,0,0,1-2.2,5.6,7.337,7.337,0,0,1-5.341,2.333s-6.807.035-8.923.035C4985.789-1466.075,4985.562-1466.076,4985.549-1466.079Zm-77.18-7.1-3.318,0a1.371,1.371,0,0,1-.327-.042,1.473,1.473,0,0,1-1.089-1.446,1.455,1.455,0,0,1,1.418-1.485l3.319,0a1.455,1.455,0,0,1,1.417,1.487,1.452,1.452,0,0,1-1.417,1.484Zm6.8-.355a1.478,1.478,0,0,1-1.092-1.434,1.457,1.457,0,0,1,1.408-1.5l8.8-.071a1.45,1.45,0,0,1,1.428,1.475,1.45,1.45,0,0,1-1.4,1.5l-8.8.071h-.021A1.289,1.289,0,0,1,4915.173-1473.537Zm53.624-1.343c-6.794-1.291-11.323-8.135-10.09-15.258a12.6,12.6,0,0,1,14.559-10.578c6.8,1.292,11.326,8.138,10.092,15.26a12.721,12.721,0,0,1-12.321,10.788A12.015,12.015,0,0,1,4968.8-1474.88Zm-7.3-14.729a10.144,10.144,0,0,0,7.81,11.806,9.748,9.748,0,0,0,11.264-8.182,10.143,10.143,0,0,0-7.808-11.806,9.26,9.26,0,0,0-1.733-.164A9.845,9.845,0,0,0,4961.5-1489.609Zm-53.214,6.523a1.472,1.472,0,0,1-1.089-1.417,1.457,1.457,0,0,1,1.389-1.515l13.729-.283a1.45,1.45,0,0,1,1.445,1.456,1.456,1.456,0,0,1-1.389,1.515l-13.729.283h-.037A1.275,1.275,0,0,1,4908.282-1483.086Zm15.75-8.62a1.38,1.38,0,0,1-.329-.04,1.474,1.474,0,0,1-1.089-1.446,1.454,1.454,0,0,1,1.418-1.485h1.846a1.452,1.452,0,0,1,1.417,1.485,1.452,1.452,0,0,1-1.417,1.485Zm-16.133-.067a1.471,1.471,0,0,1-1.089-1.434,1.454,1.454,0,0,1,1.407-1.5l8.8-.071a1.453,1.453,0,0,1,1.427,1.475,1.455,1.455,0,0,1-1.406,1.5l-8.8.069h-.02A1.3,1.3,0,0,1,4907.9-1491.773Z" transform="translate(-4903.135 1518.5)" fill="#e1173f" stroke="rgba(0,0,0,0)" stroke-width="1"/>
</svg>
