<svg xmlns="http://www.w3.org/2000/svg" xmlns:xlink="http://www.w3.org/1999/xlink" width="316" height="371" viewBox="0 0 316 371">
  <defs>
    <clipPath id="clip-path">
      <rect id="Retângulo_8266" data-name="Retângulo 8266" width="316" height="329" fill="#fff" stroke="#707070" stroke-width="1"/>
    </clipPath>
    <clipPath id="clip-path-2">
      <rect id="Retângulo_8267" data-name="Retângulo 8267" width="269" height="301" fill="#fff" stroke="#707070" stroke-width="1"/>
    </clipPath>
    <clipPath id="clip-path-3">
      <rect id="Retângulo_8268" data-name="Retângulo 8268" width="208" height="170" fill="#fff" stroke="#707070" stroke-width="1"/>
    </clipPath>
    <linearGradient id="linear-gradient" x1="0.536" y1="0.5" x2="0" y2="0.5" gradientUnits="objectBoundingBox">
      <stop offset="0" stop-color="#cc092f"/>
      <stop offset="0.23" stop-color="#c7105b"/>
      <stop offset="1" stop-color="#333b8f"/>
    </linearGradient>
  </defs>
  <g id="Grafismos" opacity="0.6">
    <g id="Grafismo" transform="translate(0 42)" clip-path="url(#clip-path)">
      <path id="Caminho_11236" data-name="Caminho 11236" d="M497.744,80.58,82.073,320.782M497.483,76.564,81.812,316.713M497.222,72.547,81.551,312.7M496.961,68.531,81.29,308.68M496.7,64.515,80.977,304.664M496.388,60.5,80.716,300.648M496.127,56.482,80.456,296.631M495.866,52.465,80.195,292.615M495.605,48.4,79.934,288.6M495.344,44.38,79.673,284.582M495.083,40.364,79.412,280.566M494.823,36.348,79.151,276.549M494.562,32.331,78.839,272.533M494.249,28.315,78.578,268.516M493.988,24.3,78.317,264.5M493.727,20.282,78.056,260.431M493.467,16.266,77.8,256.415M493.206,12.249,77.535,252.4M492.945,8.233,77.274,248.382M492.684,4.216,77.013,244.366M492.423.2,76.7,240.349" transform="translate(-87.5 7.724)" fill="none" stroke="#b91c8d" stroke-width="0.222"/>
    </g>
    <g id="Grafismo-2" data-name="Grafismo" transform="translate(46)" clip-path="url(#clip-path-2)">
      <path id="Caminho_11237" data-name="Caminho 11237" d="M80.056,200.43" transform="translate(55.09 79.043)" fill="none" stroke="#b91c8d" stroke-width="0.222"/>
      <line id="Linha_15713" data-name="Linha 15713" x1="277.079" y2="160.343" transform="translate(-4.146 12.982)" fill="none" stroke="#f16f8b" stroke-width="0.3"/>
      <line id="Linha_15714" data-name="Linha 15714" x1="277.079" y2="160.395" transform="translate(-4.146 16.894)" fill="none" stroke="#f16f8b" stroke-width="0.306"/>
      <line id="Linha_15715" data-name="Linha 15715" x1="277.132" y2="160.395" transform="translate(-4.146 20.807)" fill="none" stroke="#f16f8b" stroke-width="0.318"/>
      <line id="Linha_15716" data-name="Linha 15716" x1="277.079" y2="160.395" transform="translate(-4.146 24.771)" fill="none" stroke="#f16f8b" stroke-width="0.33"/>
      <line id="Linha_15717" data-name="Linha 15717" x1="277.132" y2="160.447" transform="translate(-4.146 28.683)" fill="none" stroke="#f16f8b" stroke-width="0.336"/>
      <line id="Linha_15718" data-name="Linha 15718" x1="277.132" y2="160.447" transform="translate(-4.146 32.647)" fill="none" stroke="#f16f8b" stroke-width="0.348"/>
      <line id="Linha_15719" data-name="Linha 15719" x1="277.132" y2="160.447" transform="translate(-4.146 36.559)" fill="none" stroke="#f16f8b" stroke-width="0.36"/>
      <line id="Linha_15720" data-name="Linha 15720" x1="277.132" y2="160.447" transform="translate(-4.146 40.523)" fill="none" stroke="#f16f8b" stroke-width="0.366"/>
      <line id="Linha_15721" data-name="Linha 15721" x1="277.184" y2="160.499" transform="translate(-4.146 44.436)" fill="none" stroke="#f16f8b" stroke-width="0.378"/>
      <line id="Linha_15722" data-name="Linha 15722" x1="277.184" y2="160.552" transform="translate(-4.146 48.348)" fill="none" stroke="#f16f8b" stroke-width="0.384"/>
      <line id="Linha_15723" data-name="Linha 15723" x1="277.184" y2="160.552" transform="translate(-4.146 52.312)" fill="none" stroke="#f16f8b" stroke-width="0.396"/>
      <line id="Linha_15724" data-name="Linha 15724" x1="277.184" y2="160.552" transform="translate(-4.146 56.224)" fill="none" stroke="#f16f8b" stroke-width="0.408"/>
      <line id="Linha_15725" data-name="Linha 15725" x1="277.236" y2="160.552" transform="translate(-4.146 60.188)" fill="none" stroke="#f16f8b" stroke-width="0.414"/>
      <line id="Linha_15726" data-name="Linha 15726" x1="277.236" y2="160.604" transform="translate(-4.146 64.1)" fill="none" stroke="#f16f8b" stroke-width="0.426"/>
      <line id="Linha_15727" data-name="Linha 15727" x1="277.184" y2="160.604" transform="translate(-4.146 68.065)" fill="none" stroke="#f16f8b" stroke-width="0.432"/>
      <line id="Linha_15728" data-name="Linha 15728" x1="277.236" y2="160.656" transform="translate(-4.146 71.977)" fill="none" stroke="#f16f8b" stroke-width="0.444"/>
      <line id="Linha_15729" data-name="Linha 15729" x1="277.236" y2="160.604" transform="translate(-4.146 75.941)" fill="none" stroke="#f16f8b" stroke-width="0.456"/>
      <line id="Linha_15730" data-name="Linha 15730" x1="277.236" y2="160.656" transform="translate(-4.146 79.853)" fill="none" stroke="#f16f8b" stroke-width="0.462"/>
      <line id="Linha_15731" data-name="Linha 15731" x1="277.236" y2="160.708" transform="translate(-4.146 83.765)" fill="none" stroke="#f16f8b" stroke-width="0.474"/>
      <line id="Linha_15732" data-name="Linha 15732" x1="277.288" y2="160.708" transform="translate(-4.146 87.729)" fill="none" stroke="#f16f8b" stroke-width="0.48"/>
      <line id="Linha_15733" data-name="Linha 15733" x1="277.288" y2="160.76" transform="translate(-4.146 91.641)" fill="none" stroke="#f16f8b" stroke-width="0.492"/>
      <line id="Linha_15734" data-name="Linha 15734" x1="277.288" y2="160.708" transform="translate(-4.146 95.606)" fill="none" stroke="#f16f8b" stroke-width="0.504"/>
      <line id="Linha_15735" data-name="Linha 15735" x1="277.288" y2="160.76" transform="translate(-4.146 99.517)" fill="none" stroke="#f16f8b" stroke-width="0.51"/>
      <line id="Linha_15736" data-name="Linha 15736" x1="277.34" y2="160.76" transform="translate(-4.146 103.482)" fill="none" stroke="#f16f8b" stroke-width="0.522"/>
      <line id="Linha_15737" data-name="Linha 15737" x1="277.288" y2="160.812" transform="translate(-4.146 107.394)" fill="none" stroke="#f16f8b" stroke-width="0.528"/>
      <line id="Linha_15738" data-name="Linha 15738" x1="277.34" y2="160.812" transform="translate(-4.146 111.358)" fill="none" stroke="#f16f8b" stroke-width="0.54"/>
      <line id="Linha_15739" data-name="Linha 15739" x1="277.34" y2="160.812" transform="translate(-4.146 115.27)" fill="none" stroke="#f16f8b" stroke-width="0.552"/>
      <line id="Linha_15740" data-name="Linha 15740" x1="277.392" y2="160.865" transform="translate(-4.146 119.182)" fill="none" stroke="#f16f8b" stroke-width="0.558"/>
      <line id="Linha_15741" data-name="Linha 15741" x1="277.34" y2="160.865" transform="translate(-4.146 123.146)" fill="none" stroke="#f16f8b" stroke-width="0.57"/>
      <line id="Linha_15742" data-name="Linha 15742" x1="277.392" y2="160.917" transform="translate(-4.146 127.059)" fill="none" stroke="#f16f8b" stroke-width="0.576"/>
      <line id="Linha_15743" data-name="Linha 15743" x1="277.392" y2="160.917" transform="translate(-4.146 131.023)" fill="none" stroke="#f16f8b" stroke-width="0.588"/>
      <line id="Linha_15744" data-name="Linha 15744" x1="277.445" y2="160.917" transform="translate(-4.146 134.935)" fill="none" stroke="#f16f8b" stroke-width="0.6"/>
    </g>
    <g id="Grafismo-3" data-name="Grafismo" transform="translate(92 107)" clip-path="url(#clip-path-3)">
      <path id="Caminho_11238" data-name="Caminho 11238" d="M261.857,11.489,0,162.973V150.205L261.857,0Z" transform="translate(0.071 4.514)" fill="url(#linear-gradient)"/>
    </g>
  </g>
</svg>
