<svg id="Grupo_23922" data-name="Grupo 23922" xmlns="http://www.w3.org/2000/svg" width="56" height="56" viewBox="0 0 56 56">
  <g id="Elipse_1531" data-name="Elipse 1531" fill="none" stroke="#e1173f" stroke-width="1">
    <circle cx="28" cy="28" r="28" stroke="none"/>
    <circle cx="28" cy="28" r="27.5" fill="none"/>
  </g>
  <g id="Componente_278_9" data-name="Componente 278 – 9" transform="translate(16.209 16.805)">
    <g id="Grupo_25762" data-name="Grupo 25762">
      <g id="Camada_4" data-name="Camada 4" transform="translate(0 13.198)">
        <g id="Grupo_10660" data-name="Grupo 10660">
          <g id="Grupo_10658" data-name="Grupo 10658">
            <path id="Caminho_9606" data-name="Caminho 9606" d="M-1753.913-219.659l5.6-4.5a2.623,2.623,0,0,1,2.131-.533l8.865,1.679a.645.645,0,0,1,.478.777.638.638,0,0,1-.027.084l-.151.355a.684.684,0,0,1-.69.431l-7.02-.656" transform="translate(1753.913 224.738)" fill="none" stroke="#e1173f" stroke-linecap="round" stroke-linejoin="round" stroke-width="0.75"/>
          </g>
          <g id="Grupo_10659" data-name="Grupo 10659" transform="translate(3.454 0.001)">
            <path id="Caminho_9607" data-name="Caminho 9607" d="M-1724.869-222.519l5.311-2.143c.775-.152.995-.052,1.1.144h0a.576.576,0,0,1-.192.758l-7.394,4.825a1.879,1.879,0,0,1-1.338.284l-6.626-1.121a1.889,1.889,0,0,0-1.6.494l-2.9,2.742" transform="translate(1738.51 224.735)" fill="none" stroke="#e1173f" stroke-linecap="round" stroke-linejoin="round" stroke-width="0.75"/>
          </g>
        </g>
      </g>
      <g id="Caminho_9662" data-name="Caminho 9662" transform="translate(10.643)">
        <path id="Caminho_9885" data-name="Caminho 9885" d="M-252.27,1914.221l1.22,2.087a.367.367,0,0,0,.238.174l2.358.52a.367.367,0,0,1,.28.438.367.367,0,0,1-.084.165l-1.6,1.812a.369.369,0,0,0-.091.28l.236,2.411a.368.368,0,0,1-.33.4.367.367,0,0,1-.184-.029l-2.21-.969a.37.37,0,0,0-.3,0l-2.21.969a.368.368,0,0,1-.485-.189.369.369,0,0,1-.029-.183l.236-2.411a.369.369,0,0,0-.091-.28l-1.6-1.812a.368.368,0,0,1,.031-.519.367.367,0,0,1,.165-.084l2.358-.52a.367.367,0,0,0,.238-.174l1.22-2.087a.368.368,0,0,1,.5-.133A.368.368,0,0,1-252.27,1914.221Z" transform="translate(257.01 -1914.039)" fill="none" stroke="#e1173f" stroke-linecap="round" stroke-linejoin="round" stroke-width="0.75"/>
      </g>
    </g>
  </g>
</svg>
