<svg id="Grupo_23921" data-name="Grupo 23921" xmlns="http://www.w3.org/2000/svg" width="56" height="56" viewBox="0 0 56 56">
  <g id="Elipse_1531" data-name="Elipse 1531" fill="none" stroke="#e1173f" stroke-width="1">
    <circle cx="28" cy="28" r="28" stroke="none"/>
    <circle cx="28" cy="28" r="27.5" fill="none"/>
  </g>
  <g id="Grupo_23960" data-name="Grupo 23960" transform="translate(17.678 17.86)">
    <path id="Stroke_4858-3" data-name="Stroke 4858-3" d="M-575.2-1613.8h-3.3c-1.1,0-1.985-1.165-1.985-2.6h0v-13.843c0-1.437.889-2.6,1.985-2.6h10.567" transform="translate(580.485 1634.065)" fill="none" stroke="#e1173f" stroke-linecap="round" stroke-linejoin="round" stroke-width="1"/>
    <g id="Grupo_24016" data-name="Grupo 24016" transform="translate(1.504)">
      <g id="Grupo_24015" data-name="Grupo 24015">
        <g id="Grupo_8707" data-name="Grupo 8707">
          <path id="Stroke_7616" data-name="Stroke 7616" d="M-556.174-1620.385h-19" transform="translate(575.262 1625.334)" fill="none" stroke="#e1173f" stroke-linecap="round" stroke-linejoin="round" stroke-width="1"/>
          <path id="Stroke_7616-2" data-name="Stroke 7616-2" d="M-559.067-1613.749h-13.7a2.689,2.689,0,0,1-2.692-2.687v0h0v-13.419a2.909,2.909,0,0,1,2.692-2.937h13.7a2.69,2.69,0,0,1,2.692,2.687v0h0v3.285" transform="translate(575.463 1634.028)" fill="none" stroke="#e1173f" stroke-linecap="round" stroke-linejoin="round" stroke-width="1"/>
          <path id="Stroke_7618" data-name="Stroke 7618" d="M-559.528-1636.911v2.718" transform="translate(564.3 1636.911)" fill="none" stroke="#e1173f" stroke-linecap="round" stroke-linejoin="round" stroke-width="1"/>
          <path id="Stroke_7620" data-name="Stroke 7620" d="M-525.5-1636.911v2.718" transform="translate(540.464 1636.911)" fill="none" stroke="#e1173f" stroke-linecap="round" stroke-linejoin="round" stroke-width="1"/>
          <path id="Stroke_7616-3" data-name="Stroke 7616-3" d="M-558.642-1573.483h-15.294" transform="translate(574.393 1592.477)" fill="none" stroke="#e1173f" stroke-linecap="round" stroke-linejoin="round" stroke-width="1"/>
        </g>
        <g id="Grupo_24014" data-name="Grupo 24014" transform="translate(15.017 10.156)">
          <g id="Group_6166" data-name="Group 6166">
            <g id="Fill_1" data-name="Fill 1">
              <path id="Caminho_9642" data-name="Caminho 9642" d="M-520.255-1592.873a5.061,5.061,0,0,1-5.061-5.061h0a5.061,5.061,0,0,1,5.059-5.062h0a5.061,5.061,0,0,1,5.062,5.059v0h0a5.061,5.061,0,0,1-5.061,5.061Z" transform="translate(525.316 1602.996)" fill="none" stroke="#e1173f" stroke-linecap="round" stroke-linejoin="round" stroke-width="1"/>
            </g>
          </g>
        </g>
        <path id="Caminho_10300" data-name="Caminho 10300" d="M-556.876-1604.143h-12.177a.621.621,0,0,1-.619-.619v-9.46a.622.622,0,0,1,.619-.619H-554.5a.621.621,0,0,1,.619.619v2.928" transform="translate(571.406 1621.451)" fill="none" stroke="#e1173f" stroke-linecap="round" stroke-linejoin="round" stroke-width="1"/>
        <path id="Stroke_7616-4" data-name="Stroke 7616-4" d="M-553.5-1603h-15.628" transform="translate(571.025 1613.155)" fill="none" stroke="#e1173f" stroke-linecap="round" stroke-linejoin="round" stroke-width="1"/>
        <path id="Stroke_7616-5" data-name="Stroke 7616-5" d="M-556.784-1590.964h-12.757" transform="translate(571.314 1604.723)" fill="none" stroke="#e1173f" stroke-linecap="round" stroke-linejoin="round" stroke-width="1"/>
        <path id="Stroke_7616-6" data-name="Stroke 7616-6" d="M-556.585-1614.845v10.7" transform="translate(562.238 1621.453)" fill="none" stroke="#e1173f" stroke-linecap="round" stroke-linejoin="round" stroke-width="1"/>
        <path id="Stroke_7616-7" data-name="Stroke 7616-7" d="M-543.592-1614.845v10.7" transform="translate(553.136 1621.453)" fill="none" stroke="#e1173f" stroke-linecap="round" stroke-linejoin="round" stroke-width="1"/>
        <path id="Stroke_7616-8" data-name="Stroke 7616-8" d="M-530.507-1614.845v10.7" transform="translate(543.97 1621.453)" fill="none" stroke="#e1173f" stroke-linecap="round" stroke-linejoin="round" stroke-width="1"/>
      </g>
    </g>
    <path id="Stroke_7739" data-name="Stroke 7739" d="M-509.722-1591.12c-.037-.335-.347-.607-1.019-.607a.85.85,0,0,0-.932.76c0,.012,0,.024,0,.036-.017.411.143.7.945.889s1.025.477,1.006.888c-.017.394-.226.788-1.006.788-.747,0-.912-.342-.945-.6" transform="translate(532.282 1605.261)" fill="none" stroke="#e1173f" stroke-linecap="round" stroke-linejoin="round" stroke-width="1"/>
    <path id="Stroke_7741" data-name="Stroke 7741" d="M-508.535-1580.5v.766" transform="translate(530.081 1597.391)" fill="none" stroke="#e1173f" stroke-linecap="round" stroke-linejoin="round" stroke-width="1"/>
    <path id="Stroke_7743" data-name="Stroke 7743" d="M-508.535-1594.247v.753" transform="translate(530.081 1607.023)" fill="none" stroke="#e1173f" stroke-linecap="round" stroke-linejoin="round" stroke-width="1"/>
  </g>
</svg>
