<svg xmlns="http://www.w3.org/2000/svg" xmlns:xlink="http://www.w3.org/1999/xlink" width="48" height="48" viewBox="0 0 48 48">
  <defs>
    <clipPath id="clip-path">
      <rect id="Retângulo_4363" data-name="Retângulo 4363" width="24" height="24" fill="#fff" stroke="#707070" stroke-width="1"/>
    </clipPath>
  </defs>
  <g id="Grupo_26142" data-name="Grupo 26142" transform="translate(-42 -48)">
    <g id="I_-_Simulação_de_crédito_pessoal" data-name="I - Simulação de crédito pessoal" transform="translate(54 60)">
      <g id="Grupo_de_máscara_37" data-name="Grupo de máscara 37" clip-path="url(#clip-path)">
        <g id="_24px" data-name="24px" transform="translate(-152.115 -419.626)">
          <g id="Grupo_10806" data-name="Grupo 10806" transform="translate(153.115 435.388)">
            <g id="Grupo_10660" data-name="Grupo 10660" transform="translate(0 0)">
              <g id="Grupo_10658" data-name="Grupo 10658" transform="translate(0 0)">
                <path id="Caminho_9606" data-name="Caminho 9606" d="M-471.029-320.369l5.275-4.241a2.471,2.471,0,0,1,2.008-.5l8.355,1.582a.608.608,0,0,1,.451.732.725.725,0,0,1-.025.079l-.142.335a.645.645,0,0,1-.651.406l-6.616-.618" transform="translate(471.029 325.156)" fill="none" stroke="#fff" stroke-linecap="round" stroke-linejoin="round" stroke-width="1"/>
              </g>
              <g id="Grupo_10659" data-name="Grupo 10659" transform="translate(3.257 0.001)">
                <path id="Caminho_9607" data-name="Caminho 9607" d="M-448.251-323.064l5.005-2.019c.73-.143.937-.048,1.042.136h0a.543.543,0,0,1-.181.715l-6.968,4.547a1.774,1.774,0,0,1-1.261.267l-6.245-1.056a1.78,1.78,0,0,0-1.509.466l-2.737,2.584" transform="translate(461.106 325.152)" fill="none" stroke="#fff" stroke-linecap="round" stroke-linejoin="round" stroke-width="1"/>
              </g>
            </g>
          </g>
          <g id="Grupo_24486" data-name="Grupo 24486" transform="translate(162.212 420.13)">
            <g id="Grupo_23863" data-name="Grupo 23863" transform="translate(0 0)">
              <path id="Caminho_10220" data-name="Caminho 10220" d="M-4757.231-5062.165" transform="translate(4763.561 5065.045)" fill="none" stroke="#fff" stroke-linecap="round" stroke-linejoin="round" stroke-width="1"/>
              <path id="Caminho_10221" data-name="Caminho 10221" d="M-4954.47-5057.587a10.094,10.094,0,0,1,.516,3.057c0,2.506-2.317,2.409-5.018,2.409s-4.626.012-4.626-2.495c0-3.311,2.284-7.546,4.889-7.546a4,4,0,0,1,3.074,2.121" transform="translate(4963.597 5065.042)" fill="none" stroke="#fff" stroke-linecap="round" stroke-linejoin="round" stroke-width="1"/>
              <line id="Linha_50" data-name="Linha 50" x2="5.275" transform="translate(2.231 2.72)" fill="none" stroke="#fff" stroke-linecap="round" stroke-linejoin="round" stroke-width="1"/>
              <g id="Grupo_23862" data-name="Grupo 23862" transform="translate(1.767 0)">
                <path id="Caminho_10222" data-name="Caminho 10222" d="M-4901.817-5153.406l1.9-1.869a.489.489,0,0,0-.439-.79h-5.064a.487.487,0,0,0-.423.806l2.159,1.853" transform="translate(4905.974 5156.065)" fill="none" stroke="#fff" stroke-linecap="round" stroke-linejoin="round" stroke-width="1"/>
              </g>
            </g>
            <g id="Grupo_10712" data-name="Grupo 10712" transform="translate(3.764 7.103)">
              <g id="Grupo_10711" data-name="Grupo 10711" transform="translate(0.19 0)">
                <line id="Linha_114" data-name="Linha 114" y1="2.859" x2="2.503" fill="none" stroke="#fff" stroke-linecap="round" stroke-linejoin="round" stroke-width="0.7"/>
              </g>
              <ellipse id="Elipse_57" data-name="Elipse 57" cx="0.49" cy="0.489" rx="0.49" ry="0.489" transform="translate(0 0)" fill="none" stroke="#fff" stroke-linecap="round" stroke-linejoin="round" stroke-width="0.7"/>
              <ellipse id="Elipse_58" data-name="Elipse 58" cx="0.49" cy="0.489" rx="0.49" ry="0.489" transform="translate(2.05 1.723)" fill="none" stroke="#fff" stroke-linecap="round" stroke-linejoin="round" stroke-width="0.7"/>
            </g>
          </g>
        </g>
      </g>
    </g>
    <g id="Elipse_1756" data-name="Elipse 1756" transform="translate(42 48)" fill="none" stroke="#fff" stroke-width="1">
      <circle cx="24" cy="24" r="24" stroke="none"/>
      <circle cx="24" cy="24" r="23.5" fill="none"/>
    </g>
  </g>
</svg>
