<svg xmlns="http://www.w3.org/2000/svg" width="56" height="56" viewBox="0 0 56 56">
  <g id="Icon-transferência" transform="translate(0 -0.482)">
    <g id="Elipse_1532" data-name="Elipse 1532" transform="translate(0 0.482)" fill="none" stroke="#e1173f" stroke-width="1">
      <circle cx="28" cy="28" r="28" stroke="none"/>
      <circle cx="28" cy="28" r="27.5" fill="none"/>
    </g>
    <g id="Componente_90_6" data-name="Componente 90 – 6" transform="translate(12 20.482)">
      <g id="Grupo_24653" data-name="Grupo 24653" transform="translate(0 0)">
        <g id="Grupo_23957" data-name="Grupo 23957">
          <g id="Grupo_10844" data-name="Grupo 10844" transform="translate(24.353 0.34)">
            <path id="Stroke_6962" data-name="Stroke 6962" d="M-452.7-1793.971a3.783,3.783,0,0,0-3.823-3.74h0a3.783,3.783,0,0,0-3.824,3.74,3.782,3.782,0,0,0,3.824,3.74,3.782,3.782,0,0,0,3.824-3.739Z" transform="translate(460.347 1797.711)" fill="none" stroke="#e1173f" stroke-linecap="round" stroke-linejoin="round" stroke-width="1"/>
            <path id="Stroke_7268" data-name="Stroke 7268" d="M-444.418-1785.141l-.953-.933v-1.865" transform="translate(449.059 1790.292)" fill="none" stroke="#e1173f" stroke-linecap="round" stroke-linejoin="round" stroke-width="1"/>
          </g>
          <g id="Grupo_8699" data-name="Grupo 8699">
            <path id="Stroke_7956" data-name="Stroke 7956" d="M-453.668-1799.045" transform="translate(478.934 1799.047)" fill="none" stroke="#e1173f" stroke-linecap="round" stroke-linejoin="round" stroke-width="1"/>
            <path id="Stroke_7958" data-name="Stroke 7958" d="M-495.077-1788.358v2.378a3,3,0,0,1-3.062,2.93h-21.745a3,3,0,0,1-3.062-2.93v-10.141a3,3,0,0,1,3.062-2.929h21.745" transform="translate(522.947 1799.05)" fill="none" stroke="#e1173f" stroke-linecap="round" stroke-linejoin="round" stroke-width="1"/>
            <path id="Stroke_7958-2" data-name="Stroke 7958" d="M-522.947-1767.913h27.87" transform="translate(522.947 1778.58)" fill="none" stroke="#e1173f" stroke-linecap="round" stroke-linejoin="round" stroke-width="1"/>
          </g>
          <g id="Grupo_23956" data-name="Grupo 23956" transform="translate(0 12.678)">
            <line id="Linha_135" data-name="Linha 135" x2="27.87" transform="translate(0)" fill="none" stroke="#e1173f" stroke-linecap="round" stroke-linejoin="round" stroke-width="1"/>
          </g>
        </g>
      </g>
    </g>
  </g>
</svg>
