<svg xmlns="http://www.w3.org/2000/svg" width="56" height="56" viewBox="0 0 56 56">
  <g id="Icon-transferência" transform="translate(0 -0.482)">
    <g id="Elipse_1532" data-name="Elipse 1532" transform="translate(0 0.482)" fill="none" stroke="#e1173f" stroke-width="1">
      <circle cx="28" cy="28" r="28" stroke="none"/>
      <circle cx="28" cy="28" r="27.5" fill="none"/>
    </g>
    <g id="Grupo_23969" data-name="Grupo 23969" transform="translate(15 16.482)">
      <path id="Caminho_4889" data-name="Caminho 4889" d="M314.053,61.25h-9.01a.452.452,0,0,0,0,.9h9.01a1.335,1.335,0,0,1,1.3,1.365V70.9H291.147V63.52a1.335,1.335,0,0,1,1.3-1.365h9.01a.452.452,0,0,0,0-.9h-9.01a2.237,2.237,0,0,0-2.2,2.27V76.776a2.237,2.237,0,0,0,2.2,2.27h21.606a2.237,2.237,0,0,0,2.2-2.27V63.52A2.237,2.237,0,0,0,314.053,61.25Zm1.3,10.557v2.715H291.147V71.807Zm-1.3,6.334H292.447a1.335,1.335,0,0,1-1.3-1.365V75.426h24.207v1.349A1.335,1.335,0,0,1,314.053,78.141Z" transform="translate(-290.25 -54.046)" fill="#e1173f"/>
      <path id="Caminho_4890" data-name="Caminho 4890" d="M305.026,59.588a.457.457,0,0,0-.642,0,.447.447,0,0,0,0,.636l4.242,4.2a.458.458,0,0,0,.642,0l4.242-4.2a.447.447,0,0,0,0-.636.457.457,0,0,0-.642,0L309.4,63.022V49.7a.455.455,0,0,0-.909,0V63.022Z" transform="translate(-295.947 -49.25)" fill="#e1173f"/>
    </g>
  </g>
</svg>
