<svg xmlns="http://www.w3.org/2000/svg" xmlns:xlink="http://www.w3.org/1999/xlink" width="1050" zoomAndPan="magnify" viewBox="0 0 787.5 374.999991" height="500" preserveAspectRatio="xMidYMid meet" version="1.0"><defs><g/><clipPath id="id1"><path d="M 0 0.117188 L 787 0.117188 L 787 374.878906 L 0 374.878906 Z M 0 0.117188 " clip-rule="nonzero"/></clipPath><clipPath id="id2"><path d="M 160 305 L 215 305 L 215 356.367188 L 160 356.367188 Z M 160 305 " clip-rule="nonzero"/></clipPath></defs><g clip-path="url(#id1)"><path fill="#ffffff" d="M 0 0.117188 L 787.5 0.117188 L 787.5 382.617188 L 0 382.617188 Z M 0 0.117188 " fill-opacity="1" fill-rule="nonzero"/><path fill="#ffffff" d="M 0 0.117188 L 787.5 0.117188 L 787.5 375.117188 L 0 375.117188 Z M 0 0.117188 " fill-opacity="1" fill-rule="nonzero"/><path fill="#ffffff" d="M 0 0.117188 L 787.5 0.117188 L 787.5 375.117188 L 0 375.117188 Z M 0 0.117188 " fill-opacity="1" fill-rule="nonzero"/><path fill="#ffffff" d="M 0 0.117188 L 787.5 0.117188 L 787.5 375.117188 L 0 375.117188 Z M 0 0.117188 " fill-opacity="1" fill-rule="nonzero"/></g><path fill="#100f0d" d="M 187.5 155.433594 C 129.226562 155.433594 123.003906 151.171875 122.386719 150.511719 C 122.183594 149.851562 121.976562 149.179688 121.800781 148.503906 C 122.34375 148.828125 122.898438 149.105469 123.457031 149.355469 C 125.097656 150.042969 126.765625 150.4375 128.453125 150.703125 C 131.820312 151.230469 135.175781 151.230469 138.5 151.054688 C 135.175781 150.847656 131.851562 150.4375 128.699219 149.558594 C 127.132812 149.105469 125.609375 148.535156 124.246094 147.757812 C 123.648438 147.421875 123.074219 147.023438 122.578125 146.601562 C 122.972656 146.777344 123.382812 146.953125 123.792969 147.113281 C 125.582031 147.773438 127.398438 148.167969 129.226562 148.429688 C 132.890625 148.929688 136.539062 148.929688 140.171875 148.738281 C 136.566406 148.535156 132.976562 148.136719 129.535156 147.273438 C 129.433594 147.257812 129.316406 147.230469 129.214844 147.199219 C 127.617188 146.777344 126.0625 146.234375 124.644531 145.53125 C 124.46875 145.441406 124.292969 145.355469 124.117188 145.253906 C 123.589844 144.972656 123.089844 144.652344 122.652344 144.300781 C 123.132812 144.503906 123.617188 144.695312 124.117188 144.855469 C 126.050781 145.515625 128.027344 145.898438 130.003906 146.144531 C 133.960938 146.628906 137.914062 146.628906 141.839844 146.4375 C 137.972656 146.234375 134.105469 145.839844 130.371094 145.003906 C 130.253906 144.988281 130.136719 144.960938 130.019531 144.929688 C 128.304688 144.519531 126.621094 144.007812 125.054688 143.320312 C 124.847656 143.230469 124.65625 143.144531 124.46875 143.039062 C 123.851562 142.746094 123.28125 142.425781 122.738281 142.042969 C 122.710938 142.03125 122.679688 142 122.652344 141.984375 C 123.238281 142.21875 123.835938 142.441406 124.4375 142.617188 C 126.53125 143.261719 128.65625 143.625 130.78125 143.859375 C 135.027344 144.328125 139.277344 144.316406 143.496094 144.125 C 139.363281 143.933594 135.21875 143.554688 131.207031 142.734375 C 131.089844 142.703125 130.957031 142.6875 130.824219 142.660156 C 128.980469 142.265625 127.164062 141.765625 125.464844 141.09375 C 125.242188 141.003906 125.039062 140.917969 124.820312 140.828125 C 124.160156 140.535156 123.515625 140.214844 122.914062 139.863281 C 122.8125 139.804688 122.722656 139.730469 122.621094 139.671875 C 123.339844 139.949219 124.042969 140.183594 124.761719 140.375 C 127.015625 141.003906 129.285156 141.339844 131.558594 141.574219 C 136.097656 142.03125 140.652344 142.015625 145.164062 141.824219 C 140.757812 141.632812 136.347656 141.253906 132.054688 140.460938 C 131.910156 140.433594 131.777344 140.402344 131.628906 140.390625 C 129.667969 140.007812 127.71875 139.523438 125.859375 138.867188 C 125.640625 138.777344 125.40625 138.703125 125.183594 138.617188 C 124.453125 138.339844 123.75 138.03125 123.089844 137.664062 C 122.898438 137.578125 122.722656 137.460938 122.546875 137.34375 C 123.382812 137.664062 124.234375 137.914062 125.097656 138.132812 C 127.5 138.734375 129.917969 139.070312 132.332031 139.289062 C 137.183594 139.730469 142.015625 139.714844 146.835938 139.523438 C 142.148438 139.320312 137.476562 138.953125 132.890625 138.191406 C 132.742188 138.164062 132.597656 138.148438 132.449219 138.117188 C 130.339844 137.738281 128.261719 137.285156 126.269531 136.652344 C 126.019531 136.566406 125.769531 136.476562 125.523438 136.390625 C 124.761719 136.125 123.984375 135.820312 123.265625 135.480469 C 122.957031 135.335938 122.664062 135.175781 122.371094 135.011719 C 122.359375 135 122.34375 135 122.34375 135 C 123.355469 135.363281 124.378906 135.65625 125.417969 135.890625 C 127.984375 136.476562 130.546875 136.800781 133.109375 137.019531 C 138.25 137.429688 143.378906 137.402344 148.492188 137.210938 C 143.394531 137.003906 138.28125 136.640625 133.257812 135.847656 C 130.75 135.4375 128.261719 134.925781 125.886719 134.191406 C 124.703125 133.8125 123.53125 133.371094 122.460938 132.832031 C 121.933594 132.566406 121.421875 132.257812 120.980469 131.921875 C 120.761719 131.761719 120.554688 131.601562 120.394531 131.410156 C 120.308594 131.335938 120.234375 131.234375 120.175781 131.160156 C 120.144531 131.132812 120.132812 131.101562 120.117188 131.074219 L 119.925781 131.144531 C 119.957031 130.253906 119.984375 129.535156 120.027344 129.035156 L 121.011719 129.035156 C 123.792969 132.347656 147.347656 134.164062 187.5 134.164062 C 227.652344 134.164062 251.207031 132.347656 253.988281 129.035156 L 254.96875 129.035156 C 255.015625 129.535156 255.042969 130.253906 255.074219 131.144531 L 254.882812 131.074219 C 254.867188 131.101562 254.839844 131.132812 254.824219 131.160156 C 254.765625 131.234375 254.691406 131.335938 254.605469 131.410156 C 254.441406 131.601562 254.222656 131.761719 254.019531 131.921875 C 253.5625 132.257812 253.066406 132.566406 252.523438 132.832031 C 251.46875 133.371094 250.3125 133.8125 249.109375 134.191406 C 246.738281 134.925781 244.246094 135.4375 241.742188 135.847656 C 236.71875 136.640625 231.621094 137.003906 226.492188 137.210938 C 231.621094 137.402344 236.746094 137.429688 241.890625 137.019531 C 244.453125 136.800781 247.015625 136.476562 249.578125 135.890625 C 250.621094 135.65625 251.644531 135.363281 252.671875 135 C 252.65625 135 252.640625 135 252.625 135.011719 C 252.332031 135.175781 252.039062 135.335938 251.734375 135.480469 C 251.015625 135.820312 250.238281 136.125 249.460938 136.390625 C 249.226562 136.476562 248.980469 136.566406 248.730469 136.652344 C 246.738281 137.285156 244.65625 137.738281 242.546875 138.117188 C 242.402344 138.148438 242.253906 138.164062 242.109375 138.191406 C 237.523438 138.953125 232.851562 139.320312 228.164062 139.523438 C 232.984375 139.714844 237.816406 139.730469 242.664062 139.289062 C 245.082031 139.070312 247.5 138.734375 249.917969 138.132812 C 250.765625 137.914062 251.617188 137.664062 252.449219 137.34375 C 252.273438 137.460938 252.097656 137.578125 251.910156 137.664062 C 251.25 138.03125 250.546875 138.339844 249.8125 138.617188 C 249.59375 138.703125 249.359375 138.777344 249.140625 138.867188 C 247.292969 139.523438 245.332031 140.007812 243.355469 140.390625 C 243.222656 140.402344 243.089844 140.433594 242.945312 140.460938 C 238.652344 141.253906 234.242188 141.632812 229.832031 141.824219 C 234.34375 142.015625 238.886719 142.03125 243.441406 141.574219 C 245.710938 141.339844 247.984375 141.003906 250.222656 140.375 C 250.941406 140.183594 251.660156 139.949219 252.378906 139.671875 C 252.273438 139.730469 252.1875 139.804688 252.085938 139.863281 C 251.484375 140.214844 250.839844 140.535156 250.179688 140.828125 C 249.960938 140.917969 249.753906 141.003906 249.535156 141.09375 C 247.835938 141.765625 246.019531 142.265625 244.175781 142.660156 C 244.042969 142.6875 243.910156 142.703125 243.792969 142.734375 C 239.78125 143.554688 235.632812 143.933594 231.503906 144.125 C 235.722656 144.316406 239.957031 144.328125 244.21875 143.859375 C 246.34375 143.625 248.464844 143.261719 250.5625 142.617188 C 251.160156 142.441406 251.761719 142.21875 252.347656 141.984375 C 252.320312 142 252.289062 142.03125 252.261719 142.042969 C 251.734375 142.425781 251.132812 142.746094 250.53125 143.039062 C 250.339844 143.144531 250.136719 143.230469 249.945312 143.320312 C 248.378906 144.007812 246.695312 144.519531 244.980469 144.929688 C 244.863281 144.960938 244.746094 144.988281 244.613281 145.003906 C 240.894531 145.839844 237.039062 146.234375 233.171875 146.4375 C 237.085938 146.628906 241.039062 146.628906 244.996094 146.144531 C 246.972656 145.898438 248.933594 145.515625 250.882812 144.855469 C 251.382812 144.695312 251.863281 144.503906 252.347656 144.300781 C 251.894531 144.652344 251.410156 144.972656 250.882812 145.253906 C 250.707031 145.355469 250.53125 145.441406 250.355469 145.53125 C 248.921875 146.234375 247.382812 146.777344 245.785156 147.199219 C 245.683594 147.230469 245.566406 147.257812 245.464844 147.273438 C 242.019531 148.136719 238.417969 148.535156 234.828125 148.738281 C 238.460938 148.929688 242.109375 148.929688 245.769531 148.429688 C 247.601562 148.167969 249.417969 147.773438 251.207031 147.113281 C 251.617188 146.953125 252.027344 146.777344 252.421875 146.601562 C 251.921875 147.023438 251.367188 147.421875 250.75 147.757812 C 249.390625 148.535156 247.867188 149.105469 246.296875 149.558594 C 243.148438 150.4375 239.824219 150.847656 236.5 151.054688 C 239.824219 151.230469 243.179688 151.230469 246.546875 150.703125 C 248.21875 150.4375 249.902344 150.042969 251.542969 149.355469 C 252.097656 149.105469 252.65625 148.828125 253.199219 148.503906 C 253.007812 149.179688 252.816406 149.851562 252.613281 150.511719 C 251.996094 151.171875 245.769531 155.433594 187.5 155.433594 Z M 136.332031 116.25 C 138.367188 116.367188 140.316406 117.097656 141.941406 118.328125 C 143.949219 119.867188 145.078125 121.625 145.328125 123.574219 C 145.414062 124.230469 145.210938 124.921875 144.769531 125.433594 C 144.316406 125.945312 143.6875 126.238281 142.996094 126.253906 C 138.238281 126.339844 127.058594 126.3125 122.445312 124.363281 L 122.445312 114.316406 C 124.730469 114.796875 130.546875 115.898438 136.332031 116.25 Z M 122.386719 128.464844 L 121.566406 128.15625 L 122.429688 128.15625 C 122.445312 128.246094 122.429688 128.347656 122.386719 128.464844 Z M 131.777344 97.527344 C 136.933594 94.613281 142.410156 93.9375 145.222656 93.808594 L 148.402344 129.226562 C 148.492188 130.136719 148.84375 130.957031 149.382812 131.628906 C 126.738281 130.515625 123.03125 128.507812 122.445312 127.996094 L 122.445312 125.636719 C 126.546875 127.132812 134.28125 127.453125 140.066406 127.453125 C 141.136719 127.453125 142.132812 127.453125 143.027344 127.441406 C 144.039062 127.410156 144.988281 126.972656 145.664062 126.210938 C 146.324219 125.433594 146.628906 124.421875 146.5 123.425781 C 146.21875 121.15625 144.929688 119.121094 142.660156 117.40625 C 140.84375 116 138.675781 115.195312 136.40625 115.0625 C 130.488281 114.710938 124.539062 113.554688 122.460938 113.113281 C 122.605469 106.652344 126.136719 100.707031 131.777344 97.527344 Z M 146.101562 67.335938 C 145.371094 66.253906 144.242188 65.507812 142.96875 65.226562 L 134.078125 63.28125 C 132.320312 62.914062 131.058594 61.347656 131.058594 59.558594 L 131.058594 42.375 C 131.058594 41.628906 131.382812 40.910156 131.921875 40.414062 C 132.464844 39.902344 133.210938 39.636719 133.945312 39.695312 L 138.074219 40.003906 L 138.132812 40.003906 C 139.539062 40.003906 140.902344 40.03125 142.207031 40.0625 C 144.316406 40.121094 146.324219 40.164062 148.433594 40.089844 L 148.492188 41.46875 L 148.492188 66.515625 C 147.992188 67.265625 147.554688 68.070312 147.171875 68.890625 Z M 149.664062 36.371094 C 150.25 35.753906 151.054688 35.34375 151.875 35.242188 C 152.738281 35.183594 153.691406 35.167969 154.597656 35.125 C 158.277344 34.964844 161.921875 34.804688 165.601562 34.597656 C 169.261719 34.40625 172.910156 34.160156 176.585938 33.953125 L 182.066406 33.585938 C 183.910156 33.457031 185.699219 33.308594 187.5 33.324219 C 188.40625 33.324219 189.300781 33.351562 190.195312 33.398438 L 192.933594 33.574219 L 198.414062 33.953125 C 202.089844 34.160156 205.738281 34.40625 209.414062 34.597656 C 213.0625 34.789062 216.722656 34.964844 220.398438 35.125 C 221.292969 35.167969 222.261719 35.183594 223.109375 35.242188 C 223.945312 35.34375 224.75 35.753906 225.335938 36.371094 C 225.820312 36.882812 226.140625 37.527344 226.289062 38.214844 L 187.5 35.859375 L 148.710938 38.214844 C 148.855469 37.527344 149.179688 36.882812 149.664062 36.371094 Z M 162.347656 27.640625 C 162.539062 29.414062 164.03125 30.773438 165.847656 30.773438 C 167.679688 30.773438 169.175781 29.414062 169.363281 27.640625 C 169.304688 29.53125 167.753906 31.023438 165.847656 31.023438 C 163.960938 31.023438 162.40625 29.53125 162.347656 27.640625 Z M 165.847656 24.34375 C 167.578125 24.34375 168.96875 25.734375 168.96875 27.449219 C 168.96875 29.179688 167.578125 30.570312 165.847656 30.570312 C 164.136719 30.570312 162.742188 29.179688 162.742188 27.449219 C 162.742188 25.734375 164.136719 24.34375 165.847656 24.34375 Z M 175.472656 24.902344 C 175.765625 27.40625 177.890625 29.367188 180.484375 29.367188 C 183.074219 29.367188 185.199219 27.40625 185.476562 24.902344 C 185.375 27.582031 183.179688 29.71875 180.484375 29.71875 C 177.773438 29.71875 175.574219 27.582031 175.472656 24.902344 Z M 180.484375 20.214844 C 182.929688 20.214844 184.90625 22.191406 184.90625 24.636719 C 184.90625 27.082031 182.929688 29.074219 180.484375 29.074219 C 178.035156 29.074219 176.042969 27.082031 176.042969 24.636719 C 176.042969 22.191406 178.035156 20.214844 180.484375 20.214844 Z M 189.507812 24.902344 C 189.800781 27.40625 191.921875 29.367188 194.515625 29.367188 C 197.109375 29.367188 199.234375 27.40625 199.527344 24.902344 C 199.410156 27.582031 197.226562 29.71875 194.515625 29.71875 C 191.804688 29.71875 189.625 27.582031 189.507812 24.902344 Z M 194.515625 20.214844 C 196.960938 20.214844 198.941406 22.191406 198.941406 24.636719 C 198.941406 27.082031 196.960938 29.074219 194.515625 29.074219 C 192.070312 29.074219 190.078125 27.082031 190.078125 24.636719 C 190.078125 22.191406 192.070312 20.214844 194.515625 20.214844 Z M 205.632812 27.640625 C 205.824219 29.414062 207.320312 30.773438 209.148438 30.773438 C 210.964844 30.773438 212.460938 29.414062 212.652344 27.640625 C 212.59375 29.53125 211.039062 31.023438 209.148438 31.023438 C 207.246094 31.023438 205.691406 29.53125 205.632812 27.640625 Z M 209.148438 24.34375 C 210.863281 24.34375 212.253906 25.734375 212.253906 27.449219 C 212.253906 29.179688 210.863281 30.570312 209.148438 30.570312 C 207.421875 30.570312 206.03125 29.179688 206.03125 27.449219 C 206.03125 25.734375 207.421875 24.34375 209.148438 24.34375 Z M 232.691406 40.0625 C 233.992188 40.03125 235.355469 40.003906 236.761719 40.003906 L 240.953125 39.695312 C 241.683594 39.636719 242.429688 39.902344 242.972656 40.398438 C 243.515625 40.910156 243.824219 41.628906 243.824219 42.375 L 243.824219 59.558594 C 243.824219 61.347656 242.5625 62.914062 240.820312 63.28125 L 231.929688 65.226562 C 230.652344 65.507812 229.527344 66.253906 228.777344 67.335938 L 227.78125 68.800781 C 227.402344 68.011719 226.976562 67.25 226.492188 66.515625 L 226.492188 41.484375 L 226.566406 40.089844 C 228.632812 40.164062 230.609375 40.121094 232.691406 40.0625 Z M 149.96875 83.214844 C 150.367188 82.777344 150.921875 82.542969 151.492188 82.542969 L 153.265625 82.542969 L 157.207031 123.632812 L 155.523438 82.542969 L 161.542969 82.542969 L 164.78125 123.632812 L 163.796875 82.542969 L 169.820312 82.542969 L 172.351562 123.632812 L 172.074219 82.542969 L 178.09375 82.542969 L 179.925781 123.632812 L 180.351562 82.542969 L 186.371094 82.542969 L 187.5 123.632812 L 188.628906 82.542969 L 194.648438 82.542969 L 195.074219 123.632812 L 196.902344 82.542969 L 202.925781 82.542969 L 202.644531 123.632812 L 205.179688 82.542969 L 211.199219 82.542969 L 210.203125 123.632812 L 213.457031 82.542969 L 219.476562 82.542969 L 217.777344 123.632812 L 221.734375 82.542969 L 223.492188 82.542969 C 224.078125 82.542969 224.632812 82.777344 225.027344 83.214844 C 225.410156 83.640625 225.601562 84.210938 225.554688 84.785156 L 221.851562 126.019531 C 221.734375 127.292969 220.664062 128.261719 219.390625 128.261719 L 155.609375 128.261719 C 154.320312 128.261719 153.265625 127.292969 153.148438 126.019531 L 149.441406 84.785156 C 149.382812 84.210938 149.589844 83.640625 149.96875 83.214844 Z M 154.847656 76.726562 C 154.539062 76.59375 154.234375 76.449219 153.941406 76.289062 L 162.757812 75.921875 L 152.722656 75.496094 C 152.605469 75.421875 152.488281 75.320312 152.386719 75.234375 L 163.519531 74.792969 L 151.375 74.324219 C 151.363281 74.308594 151.347656 74.296875 151.332031 74.28125 C 151.304688 74.25 151.273438 74.207031 151.246094 74.164062 L 164.28125 73.679688 L 150.4375 73.152344 C 150.425781 73.136719 150.394531 73.109375 150.378906 73.078125 L 165.058594 72.566406 L 149.722656 72.011719 C 149.722656 71.996094 149.722656 71.996094 149.722656 71.996094 L 165.820312 71.4375 L 149.441406 70.882812 L 166.582031 70.324219 L 149.472656 69.769531 L 167.359375 69.199219 L 149.515625 68.640625 L 168.121094 68.085938 L 149.558594 67.527344 L 168.882812 66.972656 L 151.039062 66.445312 L 223.960938 66.445312 L 206.117188 66.972656 L 225.4375 67.527344 L 206.878906 68.085938 L 225.484375 68.640625 L 207.640625 69.199219 L 225.511719 69.769531 L 208.402344 70.324219 L 225.554688 70.882812 L 209.179688 71.4375 L 225.277344 71.996094 C 225.277344 71.996094 225.261719 71.996094 225.261719 72.011719 L 209.941406 72.566406 L 224.617188 73.078125 C 224.605469 73.109375 224.589844 73.136719 224.558594 73.152344 L 210.703125 73.679688 L 223.753906 74.164062 C 223.726562 74.207031 223.695312 74.25 223.667969 74.28125 C 223.652344 74.296875 223.636719 74.308594 223.621094 74.324219 L 211.480469 74.792969 L 222.613281 75.234375 C 222.507812 75.320312 222.390625 75.421875 222.273438 75.496094 L 212.242188 75.921875 L 221.058594 76.289062 C 220.765625 76.449219 220.457031 76.59375 220.152344 76.726562 L 213.003906 77.035156 L 218.4375 77.269531 C 217.675781 77.460938 216.898438 77.546875 216.09375 77.546875 C 209.046875 77.546875 198.265625 77.546875 187.5 77.546875 C 176.71875 77.546875 165.953125 77.546875 158.90625 77.546875 C 158.101562 77.546875 157.324219 77.460938 156.546875 77.269531 L 161.996094 77.035156 Z M 188.6875 44.574219 L 211.890625 44.574219 C 217.878906 44.574219 222.730469 49.4375 222.730469 55.429688 L 222.730469 64.816406 L 188.6875 64.816406 Z M 152.269531 55.429688 C 152.269531 49.4375 157.117188 44.574219 163.109375 44.574219 L 186.3125 44.574219 L 186.3125 64.816406 L 152.269531 64.816406 Z M 186.167969 42.464844 C 183.238281 42.714844 180.292969 42.84375 177.347656 42.917969 C 174.417969 43.019531 171.472656 43.050781 168.542969 43.050781 L 164.136719 43.019531 L 161.921875 42.992188 C 161.234375 42.976562 160.53125 43.035156 159.84375 43.167969 C 157.117188 43.738281 154.421875 45.335938 153.074219 47.988281 C 153.484375 46.550781 154.453125 45.304688 155.59375 44.339844 C 156.765625 43.371094 158.144531 42.667969 159.636719 42.273438 C 160.386719 42.082031 161.148438 41.964844 161.921875 41.953125 L 164.136719 41.90625 L 168.542969 41.878906 C 171.472656 41.894531 174.417969 41.90625 177.347656 42.011719 C 180.292969 42.097656 183.238281 42.214844 186.167969 42.464844 Z M 243.222656 97.527344 C 248.847656 100.707031 252.390625 106.652344 252.539062 113.097656 C 250.515625 113.523438 244.511719 114.710938 238.550781 115.0625 C 236.265625 115.195312 234.097656 116 232.28125 117.40625 C 230.023438 119.121094 228.734375 121.15625 228.441406 123.425781 C 228.308594 124.421875 228.632812 125.433594 229.292969 126.210938 C 229.949219 126.972656 230.917969 127.410156 231.929688 127.441406 C 232.820312 127.453125 233.816406 127.453125 234.871094 127.453125 C 240.6875 127.453125 248.464844 127.132812 252.554688 125.609375 L 252.554688 127.996094 C 251.96875 128.507812 248.261719 130.515625 225.613281 131.628906 C 226.15625 130.957031 226.507812 130.136719 226.597656 129.226562 L 229.773438 93.808594 C 232.574219 93.9375 238.050781 94.613281 243.222656 97.527344 Z M 252.554688 124.347656 C 247.984375 126.3125 236.71875 126.339844 231.941406 126.253906 C 231.269531 126.238281 230.625 125.945312 230.183594 125.433594 C 229.730469 124.921875 229.527344 124.230469 229.613281 123.574219 C 229.863281 121.625 230.992188 119.867188 232.996094 118.328125 C 234.636719 117.097656 236.570312 116.367188 238.621094 116.25 C 244.4375 115.898438 250.296875 114.769531 252.554688 114.316406 Z M 252.613281 128.464844 C 252.554688 128.347656 252.554688 128.246094 252.554688 128.15625 L 253.433594 128.15625 Z M 256.683594 128.070312 L 256.609375 127.265625 L 254.324219 127.265625 L 254.324219 113.523438 C 254.324219 106.273438 250.398438 99.550781 244.085938 95.988281 C 238.621094 92.898438 232.9375 92.179688 229.9375 92.035156 L 230.550781 85.238281 C 230.582031 84.902344 230.582031 84.5625 230.550781 84.242188 C 230.625 81.957031 230.582031 76.125 228.589844 70.734375 L 230.242188 68.332031 C 230.742188 67.628906 231.460938 67.132812 232.308594 66.957031 L 241.199219 65.023438 C 243.75 64.464844 245.59375 62.167969 245.59375 59.558594 L 245.59375 42.375 C 245.59375 41.132812 245.082031 39.945312 244.175781 39.109375 C 243.265625 38.261719 242.050781 37.835938 240.820312 37.921875 L 236.734375 38.230469 C 235.3125 38.230469 233.949219 38.261719 232.632812 38.304688 C 230.59375 38.347656 228.632812 38.390625 226.609375 38.320312 C 226.539062 37.5 226.230469 36.707031 225.71875 36.046875 C 225.101562 35.285156 224.207031 34.757812 223.226562 34.570312 C 222.261719 34.4375 221.382812 34.363281 220.457031 34.261719 C 216.929688 33.910156 213.382812 33.558594 209.851562 33.25 L 210.90625 33.25 L 210.496094 31.007812 C 211.933594 30.46875 212.945312 29.089844 212.945312 27.449219 C 212.945312 25.355469 211.246094 23.65625 209.148438 23.65625 C 207.039062 23.65625 205.339844 25.355469 205.339844 27.449219 C 205.339844 29.089844 206.351562 30.46875 207.789062 31.007812 L 207.421875 33.03125 C 204.460938 32.765625 201.503906 32.53125 198.542969 32.285156 L 196.890625 32.152344 L 196.449219 29.691406 C 198.484375 28.914062 199.9375 26.953125 199.9375 24.636719 C 199.9375 21.648438 197.503906 19.21875 194.515625 19.21875 C 191.527344 19.21875 189.097656 21.648438 189.097656 24.636719 C 189.097656 26.953125 190.546875 28.914062 192.582031 29.691406 L 192.203125 31.785156 L 190.296875 31.652344 C 189.375 31.59375 188.421875 31.566406 187.5 31.566406 C 185.917969 31.550781 184.335938 31.667969 182.796875 31.785156 L 182.417969 29.691406 C 184.453125 28.914062 185.902344 26.953125 185.902344 24.636719 C 185.902344 21.648438 183.472656 19.21875 180.484375 19.21875 C 177.496094 19.21875 175.0625 21.648438 175.0625 24.636719 C 175.0625 26.953125 176.511719 28.914062 178.550781 29.691406 L 178.09375 32.152344 L 176.453125 32.269531 C 173.496094 32.53125 170.535156 32.765625 167.578125 33.03125 L 167.210938 31.007812 C 168.648438 30.46875 169.65625 29.089844 169.65625 27.449219 C 169.65625 25.355469 167.957031 23.65625 165.847656 23.65625 C 163.753906 23.65625 162.054688 25.355469 162.054688 27.449219 C 162.054688 29.089844 163.066406 30.46875 164.5 31.007812 L 164.089844 33.25 L 165.117188 33.25 C 161.585938 33.558594 158.070312 33.910156 154.539062 34.261719 C 153.617188 34.363281 152.738281 34.4375 151.773438 34.570312 C 150.789062 34.757812 149.898438 35.285156 149.28125 36.046875 C 148.769531 36.707031 148.460938 37.5 148.402344 38.320312 C 146.335938 38.390625 144.34375 38.347656 142.25 38.304688 C 140.945312 38.261719 139.585938 38.230469 138.164062 38.230469 L 134.078125 37.921875 C 132.847656 37.835938 131.617188 38.261719 130.707031 39.109375 C 129.8125 39.945312 129.285156 41.132812 129.285156 42.375 L 129.285156 59.558594 C 129.285156 62.167969 131.148438 64.464844 133.695312 65.023438 L 142.585938 66.957031 C 143.421875 67.132812 144.15625 67.628906 144.652344 68.332031 L 146.367188 70.839844 C 144.417969 76.199219 144.375 81.972656 144.449219 84.242188 C 144.417969 84.5625 144.417969 84.902344 144.449219 85.238281 L 145.0625 92.035156 C 142.058594 92.179688 136.390625 92.898438 130.914062 95.988281 C 124.597656 99.550781 120.671875 106.273438 120.671875 113.523438 L 120.671875 127.265625 L 118.386719 127.265625 L 118.316406 128.070312 C 118.269531 128.554688 117.203125 140.15625 120.6875 151.007812 C 120.730469 151.214844 120.847656 151.464844 121.113281 151.742188 C 121.683594 152.3125 123.28125 153.175781 127.558594 154.042969 L 127.558594 167.152344 C 127.558594 168.808594 128.90625 170.15625 130.574219 170.15625 L 131.117188 170.15625 L 131.746094 158.480469 L 132.378906 170.15625 L 134.691406 170.15625 L 135.320312 158.480469 L 135.964844 170.15625 L 138.265625 170.15625 L 138.894531 158.480469 L 139.527344 170.15625 L 140.476562 170.15625 C 142.132812 170.15625 143.480469 168.808594 143.480469 167.152344 L 143.480469 155.960938 C 153.308594 156.691406 167.371094 157.207031 187.5 157.207031 C 207.625 157.207031 221.6875 156.691406 231.519531 155.960938 L 231.519531 167.152344 C 231.519531 168.808594 232.867188 170.15625 234.519531 170.15625 L 235.078125 170.15625 L 235.707031 158.480469 L 236.335938 170.15625 L 238.652344 170.15625 L 239.28125 158.480469 L 239.910156 170.15625 L 242.226562 170.15625 L 242.855469 158.480469 L 243.484375 170.15625 L 244.421875 170.15625 C 246.09375 170.15625 247.441406 168.808594 247.441406 167.152344 L 247.441406 154.042969 C 251.71875 153.175781 253.316406 152.3125 253.886719 151.742188 C 254.148438 151.464844 254.265625 151.214844 254.3125 151.007812 C 257.796875 140.15625 256.726562 128.554688 256.683594 128.070312 " fill-opacity="1" fill-rule="nonzero"/><path fill="#100f0d" d="M 124.117188 112.394531 C 124.761719 110.125 125.609375 108.015625 126.824219 106.140625 C 128.027344 104.25 129.566406 102.640625 131.308594 101.25 C 132.15625 100.546875 133.09375 99.929688 134.0625 99.34375 C 135.015625 98.742188 136.023438 98.246094 137.035156 97.746094 C 139.101562 96.78125 141.238281 95.960938 143.480469 95.257812 C 141.121094 95.226562 138.777344 95.695312 136.523438 96.472656 C 135.378906 96.839844 134.296875 97.335938 133.226562 97.894531 C 132.171875 98.464844 131.160156 99.125 130.210938 99.871094 C 128.304688 101.367188 126.695312 103.285156 125.625 105.453125 C 124.539062 107.636719 124.011719 110.039062 124.117188 112.394531 " fill-opacity="1" fill-rule="nonzero"/><path fill="#100f0d" d="M 240.9375 99.34375 C 241.902344 99.929688 242.828125 100.546875 243.691406 101.25 C 245.433594 102.640625 246.972656 104.25 248.171875 106.140625 C 249.375 108.015625 250.238281 110.125 250.882812 112.394531 C 250.972656 110.039062 250.457031 107.636719 249.375 105.453125 C 248.304688 103.285156 246.695312 101.367188 244.789062 99.871094 C 243.835938 99.125 242.828125 98.464844 241.773438 97.894531 C 240.703125 97.335938 239.617188 96.839844 238.476562 96.472656 C 236.21875 95.695312 233.875 95.226562 231.519531 95.257812 C 233.757812 95.960938 235.898438 96.78125 237.964844 97.746094 C 238.972656 98.246094 239.984375 98.742188 240.9375 99.34375 " fill-opacity="1" fill-rule="nonzero"/><path fill="#100f0d" d="M 136.683594 118.210938 C 138.308594 118.210938 139.644531 119.53125 139.644531 121.171875 C 139.644531 122.796875 138.308594 124.128906 136.683594 124.128906 C 135.042969 124.128906 133.726562 122.796875 133.726562 121.171875 C 133.726562 119.53125 135.042969 118.210938 136.683594 118.210938 Z M 136.683594 124.714844 C 138.632812 124.714844 140.230469 123.117188 140.230469 121.171875 C 140.230469 119.207031 138.632812 117.609375 136.683594 117.609375 C 134.722656 117.609375 133.125 119.207031 133.125 121.171875 C 133.125 123.117188 134.722656 124.714844 136.683594 124.714844 " fill-opacity="1" fill-rule="nonzero"/><path fill="#100f0d" d="M 138.308594 121.609375 C 138.308594 122.402344 137.945312 123.105469 137.371094 123.574219 C 138.414062 123.265625 139.175781 122.3125 139.175781 121.171875 C 139.175781 119.777344 138.0625 118.664062 136.683594 118.664062 C 136.113281 118.664062 135.601562 118.855469 135.175781 119.179688 C 135.367188 119.121094 135.570312 119.089844 135.777344 119.089844 C 137.167969 119.089844 138.308594 120.21875 138.308594 121.609375 " fill-opacity="1" fill-rule="nonzero"/><path fill="#100f0d" d="M 126.8125 117.214844 C 128.378906 117.214844 129.667969 118.546875 129.667969 120.203125 C 129.667969 121.84375 128.378906 123.175781 126.8125 123.175781 C 125.230469 123.175781 123.953125 121.84375 123.953125 120.203125 C 123.953125 118.546875 125.230469 117.214844 126.8125 117.214844 Z M 126.8125 123.761719 C 128.699219 123.761719 130.253906 122.167969 130.253906 120.203125 C 130.253906 118.226562 128.699219 116.628906 126.8125 116.628906 C 124.90625 116.628906 123.355469 118.226562 123.355469 120.203125 C 123.355469 122.167969 124.90625 123.761719 126.8125 123.761719 " fill-opacity="1" fill-rule="nonzero"/><path fill="#100f0d" d="M 128.246094 120.644531 C 128.246094 121.492188 127.851562 122.253906 127.234375 122.707031 C 128.394531 122.503906 129.257812 121.449219 129.257812 120.203125 C 129.257812 118.78125 128.160156 117.640625 126.8125 117.640625 C 126.253906 117.640625 125.757812 117.832031 125.359375 118.136719 C 125.492188 118.109375 125.640625 118.09375 125.785156 118.09375 C 127.148438 118.09375 128.246094 119.238281 128.246094 120.644531 " fill-opacity="1" fill-rule="nonzero"/><path fill="#100f0d" d="M 241.230469 121.171875 C 241.230469 122.796875 239.898438 124.128906 238.269531 124.128906 C 236.628906 124.128906 235.3125 122.796875 235.3125 121.171875 C 235.3125 119.53125 236.628906 118.210938 238.269531 118.210938 C 239.898438 118.210938 241.230469 119.53125 241.230469 121.171875 Z M 234.726562 121.171875 C 234.726562 123.117188 236.308594 124.714844 238.269531 124.714844 C 240.234375 124.714844 241.816406 123.117188 241.816406 121.171875 C 241.816406 119.207031 240.234375 117.609375 238.269531 117.609375 C 236.308594 117.609375 234.726562 119.207031 234.726562 121.171875 " fill-opacity="1" fill-rule="nonzero"/><path fill="#100f0d" d="M 235.765625 121.171875 C 235.765625 122.3125 236.527344 123.265625 237.566406 123.574219 C 237.011719 123.105469 236.644531 122.402344 236.644531 121.609375 C 236.644531 120.21875 237.773438 119.089844 239.164062 119.089844 C 239.371094 119.089844 239.574219 119.121094 239.78125 119.179688 C 239.355469 118.855469 238.84375 118.664062 238.269531 118.664062 C 236.878906 118.664062 235.765625 119.777344 235.765625 121.171875 " fill-opacity="1" fill-rule="nonzero"/><path fill="#100f0d" d="M 248.144531 117.214844 C 249.710938 117.214844 251 118.546875 251 120.203125 C 251 121.84375 249.710938 123.175781 248.144531 123.175781 C 246.5625 123.175781 245.289062 121.84375 245.289062 120.203125 C 245.289062 118.546875 246.5625 117.214844 248.144531 117.214844 Z M 248.144531 123.761719 C 250.046875 123.761719 251.585938 122.167969 251.585938 120.203125 C 251.585938 118.226562 250.046875 116.628906 248.144531 116.628906 C 246.238281 116.628906 244.703125 118.226562 244.703125 120.203125 C 244.703125 122.167969 246.238281 123.761719 248.144531 123.761719 " fill-opacity="1" fill-rule="nonzero"/><path fill="#100f0d" d="M 247.703125 122.707031 C 247.105469 122.253906 246.695312 121.492188 246.695312 120.644531 C 246.695312 119.238281 247.808594 118.09375 249.15625 118.09375 C 249.300781 118.09375 249.449219 118.109375 249.59375 118.136719 C 249.183594 117.832031 248.6875 117.640625 248.144531 117.640625 C 246.78125 117.640625 245.683594 118.78125 245.683594 120.203125 C 245.683594 121.449219 246.5625 122.503906 247.703125 122.707031 " fill-opacity="1" fill-rule="nonzero"/><path fill="#100f0d" d="M 135.101562 59.953125 L 134.488281 59.835938 C 134.28125 59.792969 134.046875 59.707031 133.871094 59.574219 C 133.476562 59.296875 133.257812 58.78125 133.285156 58.34375 C 133.257812 56.703125 133.257812 55.078125 133.269531 53.449219 C 133.285156 51.824219 133.316406 50.183594 133.375 48.558594 C 133.445312 46.933594 133.519531 45.292969 133.652344 43.664062 C 133.753906 45.304688 133.796875 46.933594 133.828125 48.558594 C 133.871094 50.199219 133.871094 51.824219 133.855469 53.449219 C 133.828125 55.089844 133.8125 56.71875 133.738281 58.34375 C 133.695312 58.710938 133.828125 59.046875 134.089844 59.28125 C 134.222656 59.382812 134.382812 59.457031 134.574219 59.515625 L 135.160156 59.675781 C 135.9375 59.910156 136.726562 60.117188 137.503906 60.378906 C 136.699219 60.246094 135.894531 60.101562 135.101562 59.953125 Z M 138.5 41.378906 L 134.792969 40.808594 C 134.179688 40.722656 133.578125 40.898438 133.125 41.292969 C 132.65625 41.6875 132.390625 42.257812 132.390625 42.859375 L 132.390625 58.753906 C 132.390625 59.777344 133.140625 60.65625 134.148438 60.804688 L 137.929688 61.390625 C 138.472656 61.476562 139.011719 61.316406 139.421875 60.964844 C 139.832031 60.613281 140.082031 60.101562 140.082031 59.542969 L 140.082031 43.226562 C 140.082031 42.304688 139.410156 41.527344 138.5 41.378906 " fill-opacity="1" fill-rule="nonzero"/><path fill="#100f0d" d="M 239.734375 59.675781 L 240.320312 59.515625 C 240.511719 59.457031 240.660156 59.382812 240.804688 59.28125 C 241.070312 59.046875 241.1875 58.710938 241.15625 58.34375 C 241.082031 56.71875 241.054688 55.089844 241.039062 53.449219 C 241.023438 51.824219 241.023438 50.199219 241.054688 48.558594 C 241.082031 46.933594 241.128906 45.304688 241.246094 43.664062 C 241.375 45.292969 241.449219 46.933594 241.507812 48.558594 C 241.582031 50.183594 241.609375 51.824219 241.625 53.449219 C 241.640625 55.078125 241.640625 56.703125 241.597656 58.34375 C 241.625 58.78125 241.40625 59.296875 241.023438 59.574219 C 240.847656 59.707031 240.601562 59.792969 240.394531 59.835938 L 239.792969 59.953125 C 238.988281 60.101562 238.199219 60.246094 237.378906 60.378906 C 238.167969 60.117188 238.945312 59.910156 239.734375 59.675781 Z M 236.96875 61.390625 L 240.730469 60.804688 C 241.757812 60.65625 242.503906 59.777344 242.503906 58.753906 L 242.503906 42.859375 C 242.503906 42.257812 242.242188 41.6875 241.773438 41.292969 C 241.316406 40.898438 240.703125 40.722656 240.101562 40.808594 L 236.394531 41.378906 C 235.488281 41.527344 234.8125 42.304688 234.8125 43.226562 L 234.8125 59.542969 C 234.8125 60.101562 235.046875 60.613281 235.457031 60.964844 C 235.882812 61.316406 236.425781 61.476562 236.96875 61.390625 " fill-opacity="1" fill-rule="nonzero"/><path fill="#100f0d" d="M 180.484375 21.339844 C 182.371094 21.339844 183.925781 22.71875 184.21875 24.535156 C 184.160156 22.527344 182.503906 20.902344 180.484375 20.902344 C 178.460938 20.902344 176.804688 22.527344 176.746094 24.535156 C 177.027344 22.71875 178.59375 21.339844 180.484375 21.339844 " fill-opacity="1" fill-rule="nonzero"/><path fill="#100f0d" d="M 178.269531 23.832031 C 179.003906 23.949219 179.75 23.976562 180.484375 23.976562 C 181.214844 23.976562 181.960938 23.949219 182.695312 23.832031 C 181.960938 23.714844 181.214844 23.683594 180.484375 23.683594 C 179.75 23.683594 179.003906 23.714844 178.269531 23.832031 " fill-opacity="1" fill-rule="nonzero"/><path fill="#100f0d" d="M 178.269531 24.902344 C 179.003906 25.019531 179.75 25.03125 180.484375 25.046875 C 181.214844 25.03125 181.960938 25.019531 182.695312 24.902344 C 181.960938 24.785156 181.214844 24.753906 180.484375 24.753906 C 179.75 24.753906 179.003906 24.785156 178.269531 24.902344 " fill-opacity="1" fill-rule="nonzero"/><path fill="#100f0d" d="M 178.269531 25.96875 C 179.003906 26.074219 179.75 26.101562 180.484375 26.117188 C 181.214844 26.101562 181.960938 26.085938 182.695312 25.96875 C 181.960938 25.851562 181.214844 25.824219 180.484375 25.824219 C 179.75 25.824219 179.003906 25.851562 178.269531 25.96875 " fill-opacity="1" fill-rule="nonzero"/><path fill="#100f0d" d="M 165.847656 25.136719 C 167.183594 25.136719 168.28125 26.117188 168.472656 27.390625 C 168.441406 25.96875 167.285156 24.828125 165.847656 24.828125 C 164.429688 24.828125 163.269531 25.96875 163.226562 27.390625 C 163.433594 26.117188 164.53125 25.136719 165.847656 25.136719 " fill-opacity="1" fill-rule="nonzero"/><path fill="#100f0d" d="M 164.296875 26.894531 C 164.824219 27.011719 165.335938 27.039062 165.847656 27.039062 C 166.375 27.039062 166.890625 27.011719 167.417969 26.894531 C 166.890625 26.777344 166.375 26.746094 165.847656 26.746094 C 165.335938 26.746094 164.824219 26.777344 164.296875 26.894531 " fill-opacity="1" fill-rule="nonzero"/><path fill="#100f0d" d="M 164.296875 27.640625 C 164.824219 27.757812 165.335938 27.785156 165.847656 27.785156 C 166.375 27.785156 166.890625 27.757812 167.417969 27.640625 C 166.890625 27.523438 166.375 27.492188 165.847656 27.492188 C 165.335938 27.492188 164.824219 27.523438 164.296875 27.640625 " fill-opacity="1" fill-rule="nonzero"/><path fill="#100f0d" d="M 164.296875 28.386719 C 164.824219 28.503906 165.335938 28.535156 165.847656 28.535156 C 166.375 28.535156 166.890625 28.503906 167.417969 28.386719 C 166.890625 28.269531 166.375 28.253906 165.847656 28.242188 C 165.335938 28.253906 164.824219 28.269531 164.296875 28.386719 " fill-opacity="1" fill-rule="nonzero"/><path fill="#100f0d" d="M 209.148438 25.136719 C 210.46875 25.136719 211.566406 26.117188 211.757812 27.390625 C 211.726562 25.96875 210.570312 24.828125 209.148438 24.828125 C 207.714844 24.828125 206.558594 25.96875 206.527344 27.390625 C 206.71875 26.117188 207.816406 25.136719 209.148438 25.136719 " fill-opacity="1" fill-rule="nonzero"/><path fill="#100f0d" d="M 207.582031 26.894531 C 208.109375 27.011719 208.621094 27.039062 209.148438 27.039062 C 209.664062 27.039062 210.175781 27.011719 210.703125 26.894531 C 210.175781 26.777344 209.664062 26.746094 209.148438 26.746094 C 208.621094 26.746094 208.109375 26.777344 207.582031 26.894531 " fill-opacity="1" fill-rule="nonzero"/><path fill="#100f0d" d="M 207.582031 27.640625 C 208.109375 27.757812 208.621094 27.785156 209.148438 27.785156 C 209.664062 27.785156 210.175781 27.757812 210.703125 27.640625 C 210.175781 27.523438 209.664062 27.492188 209.148438 27.492188 C 208.621094 27.492188 208.109375 27.523438 207.582031 27.640625 " fill-opacity="1" fill-rule="nonzero"/><path fill="#100f0d" d="M 207.582031 28.386719 C 208.109375 28.503906 208.621094 28.535156 209.148438 28.535156 C 209.664062 28.535156 210.175781 28.503906 210.703125 28.386719 C 210.175781 28.269531 209.664062 28.253906 209.148438 28.242188 C 208.621094 28.253906 208.109375 28.269531 207.582031 28.386719 " fill-opacity="1" fill-rule="nonzero"/><path fill="#100f0d" d="M 194.515625 21.339844 C 196.40625 21.339844 197.972656 22.71875 198.25 24.535156 C 198.191406 22.527344 196.550781 20.902344 194.515625 20.902344 C 192.480469 20.902344 190.839844 22.527344 190.78125 24.535156 C 191.058594 22.71875 192.625 21.339844 194.515625 21.339844 " fill-opacity="1" fill-rule="nonzero"/><path fill="#100f0d" d="M 192.304688 23.832031 C 193.035156 23.949219 193.785156 23.976562 194.515625 23.976562 C 195.25 23.976562 195.996094 23.949219 196.726562 23.832031 C 195.996094 23.714844 195.25 23.683594 194.515625 23.683594 C 193.785156 23.683594 193.035156 23.714844 192.304688 23.832031 " fill-opacity="1" fill-rule="nonzero"/><path fill="#100f0d" d="M 192.304688 24.902344 C 193.035156 25.019531 193.785156 25.03125 194.515625 25.046875 C 195.25 25.03125 195.996094 25.019531 196.726562 24.902344 C 195.996094 24.785156 195.25 24.753906 194.515625 24.753906 C 193.785156 24.753906 193.035156 24.785156 192.304688 24.902344 " fill-opacity="1" fill-rule="nonzero"/><path fill="#100f0d" d="M 192.304688 25.96875 C 193.035156 26.074219 193.785156 26.101562 194.515625 26.117188 C 195.25 26.101562 195.996094 26.085938 196.726562 25.96875 C 195.996094 25.851562 195.25 25.824219 194.515625 25.824219 C 193.785156 25.824219 193.035156 25.851562 192.304688 25.96875 " fill-opacity="1" fill-rule="nonzero"/><g clip-path="url(#id2)"><path fill="#100f0d" d="M 187.5 305.636719 L 195.746094 322.335938 L 214.175781 325.019531 L 200.84375 338.027344 L 203.992188 356.394531 L 187.5 347.722656 L 171.003906 356.394531 L 174.15625 338.027344 L 160.824219 325.019531 L 179.253906 322.335938 L 187.5 305.636719 " fill-opacity="1" fill-rule="nonzero"/></g><path fill="#100f0d" d="M 220.398438 336.546875 C 230.332031 334.613281 240.21875 331.171875 249.609375 326.996094 C 259.011719 322.777344 268.023438 317.636719 276.386719 311.570312 C 284.75 305.507812 292.484375 298.519531 299.265625 290.683594 C 306.078125 282.859375 311.953125 274.21875 316.726562 264.972656 C 312.214844 274.347656 306.589844 283.195312 299.957031 291.269531 C 293.347656 299.339844 285.761719 306.632812 277.46875 313.019531 C 269.179688 319.40625 260.199219 324.902344 250.75 329.457031 C 241.273438 333.984375 231.472656 337.746094 221.058594 340.121094 C 220.09375 340.339844 219.109375 339.726562 218.890625 338.742188 C 218.671875 337.777344 219.285156 336.808594 220.253906 336.574219 C 220.28125 336.574219 220.296875 336.574219 220.3125 336.574219 L 220.398438 336.546875 " fill-opacity="1" fill-rule="nonzero"/><path fill="#100f0d" d="M 235.796875 328.636719 C 234.710938 320.402344 245.449219 309.050781 245.449219 309.050781 Z M 249.59375 302.707031 C 227.226562 323.992188 234.332031 333.585938 234.332031 333.601562 L 234.34375 333.601562 C 234.359375 333.601562 246.296875 333.410156 249.59375 302.707031 " fill-opacity="1" fill-rule="nonzero"/><path fill="#100f0d" d="M 269.675781 313.476562 C 268.769531 306.503906 277.867188 296.894531 277.867188 296.894531 Z M 281.367188 291.515625 L 281.367188 291.503906 L 281.367188 291.515625 C 262.410156 309.535156 268.433594 317.664062 268.445312 317.679688 C 268.460938 317.679688 278.582031 317.519531 281.367188 291.515625 " fill-opacity="1" fill-rule="nonzero"/><path fill="#100f0d" d="M 296.558594 291.328125 C 294.800781 286.347656 300 277.878906 300 277.878906 Z M 301.726562 273.382812 L 301.742188 273.382812 C 301.742188 273.382812 301.726562 273.382812 301.726562 273.382812 C 290.609375 289.554688 296.292969 294.59375 296.308594 294.609375 C 296.324219 294.609375 303.71875 292.910156 301.726562 273.382812 " fill-opacity="1" fill-rule="nonzero"/><path fill="#100f0d" d="M 257.195312 327.246094 C 263.011719 323.347656 275.625 327.214844 275.625 327.214844 Z M 281.980469 327.960938 C 257.488281 319.027344 252.90625 328.007812 252.890625 328.019531 C 252.90625 328.035156 257.519531 337 281.980469 327.960938 " fill-opacity="1" fill-rule="nonzero"/><path fill="#100f0d" d="M 287.898438 305.859375 C 292.457031 300.554688 305.640625 300.890625 305.640625 300.890625 Z M 311.96875 299.910156 C 285.980469 297.859375 283.960938 307.734375 283.945312 307.746094 L 283.945312 307.761719 C 283.960938 307.777344 290.828125 315.160156 311.96875 299.910156 " fill-opacity="1" fill-rule="nonzero"/><path fill="#100f0d" d="M 306.152344 284.324219 C 308.160156 280.441406 316.214844 278.773438 316.214844 278.773438 Z M 319.921875 277.265625 C 303.835938 279.738281 304.027344 286.039062 304.011719 286.039062 L 304.027344 286.039062 C 304.027344 286.054688 309.257812 289.570312 319.921875 277.265625 " fill-opacity="1" fill-rule="nonzero"/><path fill="#100f0d" d="M 311.148438 273.410156 C 310.839844 268.621094 317.476562 262.484375 317.476562 262.484375 Z M 320.113281 258.984375 C 320.113281 258.984375 320.113281 258.984375 320.097656 258.984375 C 306.371094 270.394531 310.105469 276.210938 310.105469 276.222656 C 310.121094 276.222656 317.019531 276.574219 320.113281 258.984375 " fill-opacity="1" fill-rule="nonzero"/><path fill="#100f0d" d="M 153.074219 340.121094 C 142.644531 337.746094 132.859375 333.984375 123.382812 329.457031 C 113.933594 324.902344 104.957031 319.40625 96.664062 313.019531 C 88.375 306.632812 80.769531 299.339844 74.164062 291.269531 C 67.542969 283.195312 61.917969 274.347656 57.40625 264.972656 C 62.183594 274.21875 68.054688 282.859375 74.851562 290.683594 C 81.648438 298.519531 89.382812 305.507812 97.75 311.570312 C 106.113281 317.636719 115.121094 322.777344 124.527344 326.996094 C 133.914062 331.171875 143.789062 334.613281 153.734375 336.546875 L 153.824219 336.574219 C 154.804688 336.765625 155.433594 337.71875 155.242188 338.699219 C 155.054688 339.679688 154.101562 340.3125 153.121094 340.121094 C 153.105469 340.121094 153.089844 340.121094 153.074219 340.121094 " fill-opacity="1" fill-rule="nonzero"/><path fill="#100f0d" d="M 128.6875 309.050781 C 128.6875 309.050781 139.421875 320.402344 138.339844 328.636719 Z M 139.789062 333.601562 C 139.804688 333.585938 146.910156 323.992188 124.539062 302.707031 C 127.820312 333.410156 139.773438 333.601562 139.789062 333.601562 " fill-opacity="1" fill-rule="nonzero"/><path fill="#100f0d" d="M 96.269531 296.894531 C 96.269531 296.894531 105.367188 306.503906 104.457031 313.476562 Z M 105.6875 317.679688 C 105.703125 317.664062 111.707031 309.535156 92.769531 291.515625 L 92.769531 291.503906 C 92.769531 291.503906 92.753906 291.503906 92.753906 291.503906 L 92.769531 291.515625 C 95.550781 317.519531 105.671875 317.679688 105.6875 317.679688 " fill-opacity="1" fill-rule="nonzero"/><path fill="#100f0d" d="M 74.136719 277.878906 C 74.136719 277.878906 79.320312 286.347656 77.578125 291.328125 Z M 77.828125 294.609375 C 77.839844 294.59375 83.523438 289.554688 72.40625 273.382812 C 72.390625 273.382812 72.390625 273.382812 72.390625 273.382812 C 70.414062 292.910156 77.8125 294.609375 77.828125 294.609375 " fill-opacity="1" fill-rule="nonzero"/><path fill="#100f0d" d="M 98.511719 327.214844 C 98.511719 327.214844 111.121094 323.347656 116.9375 327.246094 Z M 121.246094 328.019531 C 121.230469 328.007812 116.628906 319.027344 92.152344 327.960938 C 92.152344 327.960938 92.136719 327.960938 92.136719 327.960938 L 92.152344 327.960938 C 116.601562 337 121.230469 328.035156 121.246094 328.019531 " fill-opacity="1" fill-rule="nonzero"/><path fill="#100f0d" d="M 68.496094 300.890625 C 68.496094 300.890625 81.679688 300.554688 86.234375 305.859375 Z M 90.175781 307.761719 L 90.191406 307.761719 L 90.191406 307.746094 C 90.175781 307.734375 88.152344 297.859375 62.167969 299.910156 C 83.304688 315.160156 90.175781 307.777344 90.175781 307.761719 " fill-opacity="1" fill-rule="nonzero"/><path fill="#100f0d" d="M 57.917969 278.773438 C 57.917969 278.773438 65.976562 280.441406 67.984375 284.324219 Z M 70.105469 286.039062 C 70.105469 286.039062 70.296875 279.738281 54.214844 277.265625 C 64.878906 289.570312 70.105469 286.054688 70.105469 286.039062 " fill-opacity="1" fill-rule="nonzero"/><path fill="#100f0d" d="M 56.660156 262.484375 C 56.660156 262.484375 63.296875 268.621094 62.988281 273.410156 Z M 64.027344 276.222656 C 64.027344 276.210938 67.761719 270.394531 54.023438 258.984375 C 57.113281 276.574219 64.011719 276.222656 64.027344 276.222656 " fill-opacity="1" fill-rule="nonzero"/><path fill="#100f0d" d="M 0 170.242188 C 31.246094 168.46875 62.503906 167.53125 93.75 166.902344 C 109.378906 166.507812 124.996094 166.417969 140.625 166.183594 L 187.5 165.949219 L 234.375 166.171875 C 250.003906 166.40625 265.621094 166.476562 281.25 166.886719 C 312.496094 167.519531 343.753906 168.457031 375 170.242188 C 343.753906 172.03125 312.496094 172.96875 281.25 173.597656 C 265.621094 173.992188 250.003906 174.082031 234.375 174.316406 L 187.5 174.535156 L 140.625 174.300781 C 124.996094 174.066406 109.378906 173.976562 93.75 173.582031 C 62.503906 172.953125 31.246094 172.015625 0 170.242188 " fill-opacity="1" fill-rule="nonzero"/><path fill="#100f0d" d="M 331.640625 135.65625 L 272.59375 135.65625 L 272.59375 132.976562 L 331.640625 132.976562 L 331.640625 135.65625 " fill-opacity="1" fill-rule="nonzero"/><path fill="#100f0d" d="M 331.640625 112.527344 L 272.59375 112.527344 L 272.59375 109.863281 L 331.640625 109.863281 L 331.640625 112.527344 " fill-opacity="1" fill-rule="nonzero"/><path fill="#100f0d" d="M 101.089844 134.148438 L 42.039062 134.148438 L 42.039062 131.46875 L 101.089844 131.46875 L 101.089844 134.148438 " fill-opacity="1" fill-rule="nonzero"/><path fill="#100f0d" d="M 101.089844 111.019531 L 42.039062 111.019531 L 42.039062 108.351562 L 101.089844 108.351562 L 101.089844 111.019531 " fill-opacity="1" fill-rule="nonzero"/><g fill="#000000" fill-opacity="1"><g transform="translate(416.678343, 154.510076)"><g><path d="M 47.03125 -80.394531 C 45.824219 -80.394531 45.121094 -79.792969 44.820312 -78.585938 L 33.664062 -28.539062 L 22.511719 -78.585938 C 22.207031 -79.792969 21.503906 -80.394531 20.300781 -80.394531 L 7.035156 -80.394531 C 5.726562 -80.394531 5.023438 -79.691406 5.023438 -78.382812 L 5.023438 -2.011719 C 5.023438 -0.703125 5.726562 0 7.035156 0 L 16.28125 0 C 17.585938 0 18.289062 -0.703125 18.289062 -2.011719 L 18.289062 -47.230469 L 18.992188 -47.230469 L 28.941406 -1.808594 C 29.242188 -0.601562 29.945312 0 31.152344 0 L 36.078125 0 C 37.28125 0 37.984375 -0.601562 38.289062 -1.808594 L 48.238281 -47.230469 L 48.941406 -47.230469 L 48.941406 -2.011719 C 48.941406 -0.703125 49.644531 0 50.949219 0 L 60.296875 0 C 61.601562 0 62.304688 -0.703125 62.304688 -2.011719 L 62.304688 -78.382812 C 62.304688 -79.691406 61.601562 -80.394531 60.296875 -80.394531 Z M 47.03125 -80.394531 "/></g></g></g><g fill="#000000" fill-opacity="1"><g transform="translate(484.005461, 154.510076)"><g><path d="M 52.457031 0 C 53.664062 0 54.164062 -0.601562 53.863281 -1.707031 L 37.183594 -68.9375 C 36.980469 -69.941406 36.378906 -70.34375 35.472656 -70.34375 L 21.503906 -70.34375 C 20.601562 -70.34375 19.996094 -69.941406 19.796875 -68.9375 L 3.117188 -1.707031 C 2.8125 -0.601562 3.316406 0 4.421875 0 L 14.269531 0 C 15.175781 0 15.675781 -0.503906 15.878906 -1.40625 L 18.992188 -14.070312 L 37.886719 -14.070312 L 41.101562 -1.40625 C 41.300781 -0.503906 41.804688 0 42.710938 0 Z M 34.769531 -25.726562 L 22.109375 -25.726562 L 28.4375 -53.058594 Z M 34.769531 -25.726562 "/></g></g></g><g fill="#000000" fill-opacity="1"><g transform="translate(540.982292, 154.510076)"><g><path d="M 33.964844 -70.34375 C 32.859375 -70.34375 31.957031 -69.441406 31.957031 -68.335938 L 31.957031 -17.285156 C 31.957031 -14.570312 30.550781 -13.265625 27.9375 -13.265625 L 22.710938 -13.265625 C 20.097656 -13.265625 18.691406 -14.570312 18.691406 -17.285156 L 18.691406 -68.335938 C 18.691406 -69.441406 17.789062 -70.34375 16.683594 -70.34375 L 7.035156 -70.34375 C 5.929688 -70.34375 5.023438 -69.441406 5.023438 -68.335938 L 5.023438 -14.472656 C 5.023438 -5.023438 10.050781 0 19.496094 0 L 30.75 0 C 40.195312 0 45.222656 -5.023438 45.222656 -14.472656 L 45.222656 -68.335938 C 45.222656 -69.441406 44.316406 -70.34375 43.210938 -70.34375 Z M 33.964844 -70.34375 "/></g></g></g><g fill="#000000" fill-opacity="1"><g transform="translate(591.226404, 154.510076)"><g><path d="M 5.023438 -1.609375 C 5.023438 -0.503906 5.527344 0 6.632812 0 L 30.75 0 C 40.195312 0 45.222656 -5.023438 45.222656 -14.472656 L 45.222656 -55.773438 C 45.222656 -65.21875 40.195312 -70.34375 30.75 -70.34375 L 6.632812 -70.34375 C 5.527344 -70.34375 5.023438 -69.742188 5.023438 -68.738281 Z M 18.691406 -13.265625 L 18.691406 -57.078125 L 27.9375 -57.078125 C 30.550781 -57.078125 31.957031 -55.671875 31.957031 -52.960938 L 31.957031 -17.285156 C 31.957031 -14.570312 30.550781 -13.265625 27.9375 -13.265625 Z M 18.691406 -13.265625 "/></g></g></g><g fill="#000000" fill-opacity="1"><g transform="translate(641.470516, 154.510076)"><g><path d="M 52.457031 0 C 53.664062 0 54.164062 -0.601562 53.863281 -1.707031 L 37.183594 -68.9375 C 36.980469 -69.941406 36.378906 -70.34375 35.472656 -70.34375 L 21.503906 -70.34375 C 20.601562 -70.34375 19.996094 -69.941406 19.796875 -68.9375 L 3.117188 -1.707031 C 2.8125 -0.601562 3.316406 0 4.421875 0 L 14.269531 0 C 15.175781 0 15.675781 -0.503906 15.878906 -1.40625 L 18.992188 -14.070312 L 37.886719 -14.070312 L 41.101562 -1.40625 C 41.300781 -0.503906 41.804688 0 42.710938 0 Z M 34.769531 -25.726562 L 22.109375 -25.726562 L 28.4375 -53.058594 Z M 34.769531 -25.726562 "/></g></g></g><g fill="#000000" fill-opacity="1"><g transform="translate(698.447346, 154.510076)"><g><path d="M 36.878906 -70.34375 C 35.773438 -70.34375 35.273438 -69.742188 35.273438 -68.738281 L 35.273438 -30.648438 L 16.378906 -69.039062 C 15.976562 -69.941406 15.476562 -70.34375 14.570312 -70.34375 L 6.632812 -70.34375 C 5.628906 -70.34375 5.023438 -69.742188 5.023438 -68.738281 L 5.023438 -1.609375 C 5.023438 -0.601562 5.628906 0 6.632812 0 L 16.078125 0 C 17.183594 0 17.6875 -0.601562 17.6875 -1.609375 L 17.6875 -39.695312 L 36.578125 -1.304688 C 36.980469 -0.402344 37.484375 0 38.386719 0 L 46.328125 0 C 47.332031 0 47.933594 -0.601562 47.933594 -1.609375 L 47.933594 -68.738281 C 47.933594 -69.742188 47.332031 -70.34375 46.328125 -70.34375 Z M 36.878906 -70.34375 "/></g></g></g><g fill="#000000" fill-opacity="1"><g transform="translate(453.387298, 243.137597)"><g><path d="M 16.6875 -25.296875 L 16.6875 0 L 10.359375 0 L 10.359375 -25.296875 L 0.78125 -25.296875 L 0.78125 -31.09375 L 26.25 -31.09375 L 26.25 -25.296875 Z M 16.6875 -25.296875 "/></g></g></g><g fill="#000000" fill-opacity="1"><g transform="translate(480.427968, 243.137597)"><g><path d="M 17.46875 -17.90625 C 16.875 -18.195312 16.082031 -18.34375 15.09375 -18.34375 C 14.019531 -18.34375 13 -18.082031 12.03125 -17.5625 C 11.0625 -17.050781 10.066406 -16.300781 9.046875 -15.3125 L 9.046875 0 L 3.25 0 L 3.25 -23.5625 L 9.046875 -23.5625 L 9.046875 -20.1875 C 10.035156 -21.269531 11.097656 -22.160156 12.234375 -22.859375 C 13.378906 -23.566406 14.65625 -23.921875 16.0625 -23.921875 C 17.257812 -23.921875 18.113281 -23.765625 18.625 -23.453125 Z M 17.46875 -17.90625 "/></g></g></g><g fill="#000000" fill-opacity="1"><g transform="translate(499.293551, 243.137597)"><g><path d="M 18.265625 0 L 18.265625 -3.03125 C 17.242188 -1.9375 15.992188 -1.039062 14.515625 -0.34375 C 13.046875 0.351562 11.628906 0.703125 10.265625 0.703125 C 7.597656 0.703125 5.734375 -0.0351562 4.671875 -1.515625 C 3.609375 -2.992188 3.078125 -5.09375 3.078125 -7.8125 L 3.078125 -23.5625 L 8.875 -23.5625 L 8.875 -10.578125 C 8.875 -8.921875 8.96875 -7.648438 9.15625 -6.765625 C 9.351562 -5.878906 9.671875 -5.265625 10.109375 -4.921875 C 10.554688 -4.585938 11.207031 -4.421875 12.0625 -4.421875 C 13.78125 -4.421875 15.847656 -5.550781 18.265625 -7.8125 L 18.265625 -23.5625 L 24.0625 -23.5625 L 24.0625 0 Z M 18.265625 0 "/></g></g></g><g fill="#000000" fill-opacity="1"><g transform="translate(526.626193, 243.137597)"><g><path d="M 22.734375 -3.375 C 21.835938 -2.039062 20.65625 -1.023438 19.1875 -0.328125 C 17.71875 0.359375 15.859375 0.703125 13.609375 0.703125 C 9.804688 0.703125 6.929688 -0.332031 4.984375 -2.40625 C 3.035156 -4.488281 2.0625 -7.566406 2.0625 -11.640625 C 2.0625 -15.609375 3.003906 -18.695312 4.890625 -20.90625 C 6.785156 -23.125 9.617188 -24.234375 13.390625 -24.234375 C 15.410156 -24.234375 17.207031 -23.90625 18.78125 -23.25 C 20.363281 -22.59375 21.566406 -21.570312 22.390625 -20.1875 L 18.078125 -17.109375 C 17.554688 -17.816406 16.941406 -18.335938 16.234375 -18.671875 C 15.535156 -19.015625 14.628906 -19.1875 13.515625 -19.1875 C 11.546875 -19.1875 10.140625 -18.578125 9.296875 -17.359375 C 8.460938 -16.148438 8.046875 -14.269531 8.046875 -11.71875 C 8.046875 -9.175781 8.472656 -7.316406 9.328125 -6.140625 C 10.191406 -4.960938 11.664062 -4.375 13.75 -4.375 C 14.644531 -4.375 15.46875 -4.5 16.21875 -4.75 C 16.96875 -5.007812 17.675781 -5.578125 18.34375 -6.453125 Z M 22.734375 -3.375 "/></g></g></g><g fill="#000000" fill-opacity="1"><g transform="translate(550.410309, 243.137597)"><g><path d="M 17.609375 0 L 11.328125 -9.75 L 9.046875 -7.328125 L 9.046875 0 L 3.25 0 L 3.25 -33.4375 L 9.046875 -33.4375 L 9.046875 -14.3125 L 16.984375 -23.5625 L 23.703125 -23.5625 L 14.796875 -13.65625 L 24.1875 0 Z M 17.609375 0 "/></g></g></g><g fill="#000000" fill-opacity="1"><g transform="translate(575.115239, 243.137597)"><g/></g></g><g fill="#000000" fill-opacity="1"><g transform="translate(586.165081, 243.137597)"><g><path d="M 27.5625 -15.546875 C 27.5625 -11.796875 27.039062 -8.78125 26 -6.5 C 24.96875 -4.226562 23.410156 -2.578125 21.328125 -1.546875 C 19.253906 -0.515625 16.332031 0 12.5625 0 L 3.078125 0 L 3.078125 -31.09375 L 12.46875 -31.09375 C 16.132812 -31.09375 19.046875 -30.554688 21.203125 -29.484375 C 23.367188 -28.421875 24.96875 -26.765625 26 -24.515625 C 27.039062 -22.265625 27.5625 -19.273438 27.5625 -15.546875 Z M 21.03125 -15.59375 C 21.03125 -18.300781 20.757812 -20.304688 20.21875 -21.609375 C 19.6875 -22.921875 18.785156 -23.863281 17.515625 -24.4375 C 16.242188 -25.007812 14.359375 -25.296875 11.859375 -25.296875 L 9.4375 -25.296875 L 9.4375 -5.796875 L 11.859375 -5.796875 C 14.359375 -5.796875 16.238281 -6.082031 17.5 -6.65625 C 18.769531 -7.238281 19.675781 -8.203125 20.21875 -9.546875 C 20.757812 -10.890625 21.03125 -12.90625 21.03125 -15.59375 Z M 21.03125 -15.59375 "/></g></g></g><g fill="#000000" fill-opacity="1"><g transform="translate(615.65379, 243.137597)"><g><path d="M 9.390625 -29.984375 C 9.390625 -28.890625 9.117188 -28.125 8.578125 -27.6875 C 8.035156 -27.257812 7.210938 -27.046875 6.109375 -27.046875 C 4.878906 -27.046875 4.039062 -27.300781 3.59375 -27.8125 C 3.15625 -28.320312 2.9375 -29.046875 2.9375 -29.984375 C 2.9375 -31.035156 3.175781 -31.785156 3.65625 -32.234375 C 4.132812 -32.691406 4.953125 -32.921875 6.109375 -32.921875 C 7.273438 -32.921875 8.113281 -32.703125 8.625 -32.265625 C 9.132812 -31.828125 9.390625 -31.066406 9.390625 -29.984375 Z M 3.25 0 L 3.25 -23.5625 L 9.046875 -23.5625 L 9.046875 0 Z M 3.25 0 "/></g></g></g><g fill="#000000" fill-opacity="1"><g transform="translate(627.983802, 243.137597)"><g><path d="M 8.046875 -10.265625 C 8.148438 -8.171875 8.65625 -6.664062 9.5625 -5.75 C 10.476562 -4.832031 11.914062 -4.375 13.875 -4.375 C 15.019531 -4.375 16.019531 -4.515625 16.875 -4.796875 C 17.738281 -5.085938 18.492188 -5.640625 19.140625 -6.453125 L 23.453125 -3.375 C 22.503906 -2.007812 21.273438 -0.988281 19.765625 -0.3125 C 18.265625 0.363281 16.210938 0.703125 13.609375 0.703125 C 9.734375 0.703125 6.835938 -0.3125 4.921875 -2.34375 C 3.015625 -4.382812 2.0625 -7.46875 2.0625 -11.59375 C 2.0625 -20.019531 5.835938 -24.234375 13.390625 -24.234375 C 16.742188 -24.234375 19.300781 -23.285156 21.0625 -21.390625 C 22.820312 -19.492188 23.703125 -16.738281 23.703125 -13.125 L 23.703125 -10.265625 Z M 17.953125 -14.265625 C 17.953125 -17.835938 16.382812 -19.625 13.25 -19.625 C 12.21875 -19.625 11.367188 -19.445312 10.703125 -19.09375 C 10.046875 -18.75 9.519531 -18.226562 9.125 -17.53125 C 8.726562 -16.832031 8.421875 -15.742188 8.203125 -14.265625 Z M 17.953125 -14.265625 "/></g></g></g><g fill="#000000" fill-opacity="1"><g transform="translate(653.654488, 243.137597)"><g><path d="M 21.25 -6.71875 C 21.25 -5.15625 20.851562 -3.820312 20.0625 -2.71875 C 19.28125 -1.613281 18.164062 -0.765625 16.71875 -0.171875 C 15.28125 0.410156 13.628906 0.703125 11.765625 0.703125 C 6.835938 0.703125 3.484375 -0.671875 1.703125 -3.421875 L 6.015625 -6.453125 C 6.722656 -5.492188 7.535156 -4.851562 8.453125 -4.53125 C 9.378906 -4.207031 10.363281 -4.046875 11.40625 -4.046875 C 14.164062 -4.046875 15.546875 -4.847656 15.546875 -6.453125 C 15.546875 -7.148438 15.15625 -7.6875 14.375 -8.0625 C 13.59375 -8.445312 12.375 -8.84375 10.71875 -9.25 C 7.582031 -9.9375 5.378906 -10.910156 4.109375 -12.171875 C 2.835938 -13.429688 2.203125 -15.066406 2.203125 -17.078125 C 2.203125 -19.148438 3 -20.859375 4.59375 -22.203125 C 6.1875 -23.554688 8.535156 -24.234375 11.640625 -24.234375 C 13.742188 -24.234375 15.597656 -23.894531 17.203125 -23.21875 C 18.816406 -22.550781 20.0625 -21.539062 20.9375 -20.1875 L 16.59375 -17.109375 C 15.5625 -18.703125 13.878906 -19.5 11.546875 -19.5 C 10.347656 -19.5 9.441406 -19.289062 8.828125 -18.875 C 8.210938 -18.46875 7.90625 -17.941406 7.90625 -17.296875 C 7.90625 -16.679688 8.179688 -16.191406 8.734375 -15.828125 C 9.285156 -15.460938 10.378906 -15.078125 12.015625 -14.671875 C 14.691406 -14.003906 16.601562 -13.34375 17.75 -12.6875 C 18.894531 -12.039062 19.765625 -11.234375 20.359375 -10.265625 C 20.953125 -9.304688 21.25 -8.125 21.25 -6.71875 Z M 21.25 -6.71875 "/></g></g></g><g fill="#000000" fill-opacity="1"><g transform="translate(676.697438, 243.137597)"><g><path d="M 8.046875 -10.265625 C 8.148438 -8.171875 8.65625 -6.664062 9.5625 -5.75 C 10.476562 -4.832031 11.914062 -4.375 13.875 -4.375 C 15.019531 -4.375 16.019531 -4.515625 16.875 -4.796875 C 17.738281 -5.085938 18.492188 -5.640625 19.140625 -6.453125 L 23.453125 -3.375 C 22.503906 -2.007812 21.273438 -0.988281 19.765625 -0.3125 C 18.265625 0.363281 16.210938 0.703125 13.609375 0.703125 C 9.734375 0.703125 6.835938 -0.3125 4.921875 -2.34375 C 3.015625 -4.382812 2.0625 -7.46875 2.0625 -11.59375 C 2.0625 -20.019531 5.835938 -24.234375 13.390625 -24.234375 C 16.742188 -24.234375 19.300781 -23.285156 21.0625 -21.390625 C 22.820312 -19.492188 23.703125 -16.738281 23.703125 -13.125 L 23.703125 -10.265625 Z M 17.953125 -14.265625 C 17.953125 -17.835938 16.382812 -19.625 13.25 -19.625 C 12.21875 -19.625 11.367188 -19.445312 10.703125 -19.09375 C 10.046875 -18.75 9.519531 -18.226562 9.125 -17.53125 C 8.726562 -16.832031 8.421875 -15.742188 8.203125 -14.265625 Z M 17.953125 -14.265625 "/></g></g></g><g fill="#000000" fill-opacity="1"><g transform="translate(702.368113, 243.137597)"><g><path d="M 3.25 0 L 3.25 -33.4375 L 9.046875 -33.4375 L 9.046875 0 Z M 3.25 0 "/></g></g></g></svg>